<svg width="78" height="94" viewBox="0 0 78 94" fill="none" xmlns="http://www.w3.org/2000/svg" xmlns:xlink="http://www.w3.org/1999/xlink">
<path d="M66,90L65.767,92.489C66.467,92.555 67.163,92.322 67.683,91.848C68.203,91.375 68.5,90.704 68.5,90L66,90ZM2,84L-0.5,84C-0.5,85.29 0.482,86.369 1.767,86.489L2,84ZM2,8L1.767,5.511C0.482,5.631 -0.5,6.71 -0.5,8L2,8ZM66,2L68.5,2C68.5,1.296 68.203,0.625 67.683,0.152C67.163,-0.322 66.467,-0.555 65.767,-0.489L66,2ZM66.233,87.511L2.233,81.511L1.767,86.489L65.767,92.489L66.233,87.511ZM4.5,84L4.5,8L-0.5,8L-0.5,84L4.5,84ZM2.233,10.489L66.233,4.489L65.767,-0.489L1.767,5.511L2.233,10.489ZM63.5,2L63.5,90L68.5,90L68.5,2L63.5,2Z" fill="#474747"/>
<line x1="75.5" y1="10" x2="75.5" y2="82" stroke="#474747" stroke-width="2.5" stroke-miterlimit="3.999327" stroke-linecap="round" stroke-linejoin="round"/>
<line x1="16" y1="53.5" x2="48" y2="53.5" stroke="#AD343E" stroke-width="2.5" stroke-miterlimit="3.999327" stroke-linecap="round" stroke-linejoin="round"/>
<path d="M16.156,67.505C14.778,67.419 13.591,68.466 13.505,69.844C13.419,71.222 14.466,72.409 15.844,72.495L16.156,67.505ZM47.844,74.495C49.222,74.581 50.409,73.534 50.495,72.156C50.581,70.778 49.534,69.591 48.156,69.505L47.844,74.495ZM15.844,72.495L47.844,74.495L48.156,69.505L16.156,67.505L15.844,72.495Z" fill="#AD343E"/>
<path d="M41.5,30C41.5,35.247 37.247,39.5 32,39.5L32,44.5C40.008,44.5 46.5,38.008 46.5,30L41.5,30ZM32,39.5C26.753,39.5 22.5,35.247 22.5,30L17.5,30C17.5,38.008 23.992,44.5 32,44.5L32,39.5ZM22.5,30C22.5,24.753 26.753,20.5 32,20.5L32,15.5C23.992,15.5 17.5,21.992 17.5,30L22.5,30ZM32,20.5C37.247,20.5 41.5,24.753 41.5,30L46.5,30C46.5,21.992 40.008,15.5 32,15.5L32,20.5Z" fill="#AD343E"/>
</svg>
