<svg width="96" height="94" viewBox="0 0 96 94" fill="none" xmlns="http://www.w3.org/2000/svg" xmlns:xlink="http://www.w3.org/1999/xlink">
<line x1="35" y1="0" x2="35" y2="14" stroke="#474747" stroke-width="5" stroke-miterlimit="3.999327" stroke-linecap="round" stroke-linejoin="round"/>
<line x1="15" y1="4" x2="15" y2="18" stroke="#474747" stroke-width="5" stroke-miterlimit="3.999327" stroke-linecap="round" stroke-linejoin="round"/>
<line x1="55" y1="4" x2="55" y2="18" stroke="#474747" stroke-width="5" stroke-miterlimit="3.999327" stroke-linecap="round" stroke-linejoin="round"/>
<path d="M74,35C71.239,35 69,37.239 69,40C69,42.761 71.239,45 74,45L74,35ZM90,40L95,40C95,37.239 92.761,35 90,35L90,40ZM74,59C71.239,59 69,61.239 69,64C69,66.761 71.239,69 74,69L74,59ZM74,45L90,45L90,35L74,35L74,45ZM85,40L85,56L95,56L95,40L85,40ZM85,56C85,57.657 83.657,59 82,59L82,69C89.179,69 95,63.179 95,56L85,56ZM82,59L74,59L74,69L82,69L82,59Z" fill="#474747"/>
<path d="M6,32L6,27C3.239,27 1,29.239 1,32L6,32ZM74,32L79,32C79,29.239 76.761,27 74,27L74,32ZM50,83L30,83L30,93L50,93L50,83ZM30,83C19.507,83 11,74.493 11,64L1,64C1,80.015 13.985,93 30,93L30,83ZM11,64L11,32L1,32L1,64L11,64ZM6,37L74,37L74,27L6,27L6,37ZM69,32L69,64L79,64L79,32L69,32ZM69,64C69,74.493 60.493,83 50,83L50,93C66.015,93 79,80.015 79,64L69,64Z" fill="#474747"/>
<path d="M36,48L36,43C33.239,43 31,45.239 31,48L36,48ZM56,48L61,48C61,45.239 58.761,43 56,43L56,48ZM56,68L56,73C58.761,73 61,70.761 61,68L56,68ZM36,68L31,68C31,70.761 33.239,73 36,73L36,68ZM36,53L56,53L56,43L36,43L36,53ZM51,48L51,68L61,68L61,48L51,48ZM56,63L36,63L36,73L56,73L56,63ZM41,68L41,48L31,48L31,68L41,68Z" fill="#474747"/>
<line x1="41" y1="32" x2="41" y2="48" stroke="#474747" stroke-width="5" stroke-miterlimit="3.999327" stroke-linecap="round" stroke-linejoin="round"/>
</svg>
