<svg width="332" height="60" viewBox="0 0 332 60" fill="none" xmlns="http://www.w3.org/2000/svg" xmlns:xlink="http://www.w3.org/1999/xlink">
<path d="M68.007,18.666L72.765,18.666L72.765,14.095C72.765,8.574 75.817,4.953 81.907,4.953L84.959,5.529L84.959,11.05L81.72,10.474C79.812,10.474 79.056,11.626 79.056,13.527L79.056,18.666L85.146,18.666L85.146,24.188L79.049,24.188L79.049,47.043L72.959,47.043L72.959,24.188L68.007,24.188L68.007,18.666ZM100.573,18.098C108.383,18.098 115.43,24.188 115.43,32.955C115.43,41.723 108.577,47.806 100.573,47.806C92.568,47.806 85.722,41.716 85.722,32.955C85.722,24 92.762,18.098 100.573,18.098ZM100.573,42.285C106.288,42.285 109.333,38.095 109.333,32.955C109.333,27.816 106.288,23.619 100.573,23.619C94.857,23.619 91.812,27.808 91.812,32.955C91.812,37.901 94.864,42.285 100.573,42.285ZM132.764,18.098C140.575,18.098 147.615,24.188 147.615,32.955C147.615,41.723 140.762,47.806 132.764,47.806C124.767,47.806 117.907,41.716 117.907,32.955C118.094,24 124.954,18.098 132.764,18.098ZM132.764,42.285C138.473,42.285 141.525,38.095 141.525,32.955C141.525,27.816 138.473,23.619 132.764,23.619C127.056,23.619 124.004,27.808 124.004,32.955C124.004,37.901 127.049,42.285 132.764,42.285ZM179.238,47.043L173.71,47.043L173.134,44.574L172.759,44.192L172.378,44.574C170.47,46.474 167.62,47.619 164.567,47.619C156.757,47.619 150.098,41.522 150.098,32.761C150.098,24 156.757,17.903 164.567,17.903C167.62,17.903 170.665,19.055 172.378,20.955L172.759,21.337L173.141,20.955L173.141,5.147L179.238,5.147L179.238,47.043ZM164.949,23.432C159.233,23.432 156.188,27.621 156.188,32.761C156.188,37.901 159.233,42.098 164.949,42.098C170.096,42.098 173.71,37.901 173.71,32.761C173.71,27.808 170.096,23.432 164.949,23.432ZM185.328,18.666L190.856,18.666L191.425,21.143L191.807,21.524L192.188,21.143C194.089,19.242 196.946,18.098 199.998,18.098C207.802,18.098 214.468,24.188 214.468,32.955C214.468,41.723 207.802,47.806 199.998,47.806C196.946,47.806 193.901,46.669 192.188,44.761L191.807,44.379L191.425,44.761L191.425,60L185.522,60L185.522,18.666L185.328,18.666ZM199.423,42.285C205.138,42.285 208.183,38.095 208.183,32.955C208.183,27.816 205.138,23.619 199.423,23.619C194.283,23.619 190.662,27.808 190.662,32.955C190.662,37.901 194.283,42.285 199.423,42.285ZM229.52,29.335L234.465,29.335L234.465,28.003C234.465,24.569 232.183,23.05 228.944,23.05C226.28,23.05 224.567,24.382 223.617,26.858L218.283,25.714C219.42,20.955 223.61,17.903 229.138,17.903C236.754,17.903 240.562,21.718 240.562,29.14L240.562,46.856L235.61,46.856L235.034,43.041C233.133,45.906 230.088,47.237 226.086,47.237C220.946,47.237 217.325,44.192 217.325,38.477C217.138,32.955 222.091,29.335 229.52,29.335ZM226.856,42.285C228.757,42.285 230.657,41.709 231.996,40.377C233.515,39.045 234.278,37.332 234.278,35.05L234.278,34.474L229.138,34.474C225.517,34.474 223.235,36.188 223.235,38.858C223.235,40.759 224.567,42.285 226.849,42.285L226.856,42.285ZM245.896,18.666L251.417,18.666L251.993,21.143L252.375,21.524L252.749,21.143C253.901,19.242 256.946,18.098 259.422,18.098C266.657,18.098 270.847,22.856 270.847,29.522L270.847,47.043L264.749,47.043L264.749,29.522C264.562,25.714 262.662,23.432 258.659,23.432C255.038,23.432 252.181,26.29 251.993,29.91L251.993,47.043L245.896,47.043L245.896,18.666ZM303.413,47.043L297.891,47.043L297.315,44.574L296.941,44.192L296.559,44.574C294.653,46.474 291.795,47.619 288.749,47.619C280.939,47.619 274.281,41.522 274.281,32.761C274.281,24 280.939,17.903 288.749,17.903C291.795,17.903 294.847,19.055 296.559,20.955L296.941,21.337L297.323,20.955L297.323,5.147L303.413,5.147L303.413,47.043ZM289.319,23.432C283.609,23.432 280.557,27.621 280.557,32.761C280.557,37.901 283.609,42.098 289.319,42.098C294.465,42.098 298.085,37.901 298.085,32.761C298.085,27.808 294.465,23.432 289.319,23.432ZM320.747,29.335L325.699,29.335L325.699,28.003C325.699,24.569 323.417,23.05 320.179,23.05C317.515,23.05 315.795,24.382 314.843,26.858L309.517,25.714C310.655,20.955 314.843,17.903 320.365,17.903C327.989,17.903 331.797,21.718 331.797,29.14L331.797,46.856L326.843,46.856L326.269,43.041C324.367,45.906 321.315,47.237 317.321,47.237C312.173,47.237 308.559,44.192 308.559,38.477C308.365,32.955 313.131,29.335 320.747,29.335ZM318.083,42.285C319.983,42.285 321.891,41.709 323.223,40.377C324.749,39.045 325.513,37.332 325.513,35.05L325.513,34.474L320.365,34.474C316.745,34.474 314.463,36.188 314.463,38.858C314.463,40.759 315.795,42.285 318.083,42.285Z" fill="#D70F64"/>
<path d="M25.881,38.094C29.315,38.094 32.172,35.617 32.172,32.573L19.597,32.573C19.597,35.617 22.253,38.094 25.881,38.094Z" fill="#D70F64"/>
<path d="M47.043,11.813C48.569,10.669 49.332,8.761 49.332,6.666C49.332,2.858 46.287,0 42.472,0C40.003,0 37.901,1.145 36.764,3.053C33.322,1.381 29.539,0.533 25.714,0.576C21.896,0.585 18.127,1.43 14.671,3.053C13.52,1.138 11.432,0 8.956,0C7.164,-0.019 5.437,0.671 4.152,1.92C2.867,3.168 2.128,4.875 2.095,6.666C2.111,7.634 2.322,8.589 2.716,9.473C3.109,10.357 3.677,11.153 4.385,11.813C1.492,16.011 -0.038,20.997 0.001,26.095C0.003,32.915 2.712,39.454 7.534,44.277C12.355,49.1 18.894,51.811 25.714,51.815C32.532,51.811 39.07,49.101 43.891,44.28C48.713,39.459 51.423,32.921 51.427,26.102C51.427,20.775 49.901,15.816 47.043,11.82L47.043,11.813ZM25.908,49.713C12.944,49.713 2.29,39.045 2.29,26.102C2.29,21.142 3.809,16.571 6.285,12.763C8.59,9.278 11.824,6.508 15.622,4.766C18.666,3.24 22.287,2.477 25.901,2.477C29.515,2.477 33.135,3.24 36.18,4.766C39.996,6.666 43.041,9.337 45.517,12.763C47.993,16.579 49.512,21.142 49.512,26.095C49.512,39.052 38.851,49.706 25.901,49.706L25.908,49.713Z" fill="#D70F64"/>
<path d="M25.875,31.048C26.264,31.235 30.266,29.716 30.266,27.809C30.266,26.664 27.027,26.477 25.875,26.477C24.723,26.477 21.498,26.664 21.498,27.809C21.311,29.716 25.493,31.235 25.875,31.048ZM40.733,15.046C38.451,13.527 33.498,12.764 31.59,15.24C31.59,15.24 29.114,17.904 31.59,20.567C34.067,23.23 35.78,25.908 36.356,28.003C36.932,30.285 37.875,31.048 39.595,31.048C41.316,31.048 44.735,28.385 45.304,24.001C45.448,22.231 45.097,20.456 44.289,18.874C43.482,17.293 42.251,15.967 40.733,15.046ZM35.593,20.574C34.83,20.574 34.261,19.998 34.261,19.242C34.261,18.487 34.837,17.904 35.593,17.904C36.349,17.904 36.925,18.479 36.925,19.242C36.925,20.005 36.349,20.574 35.593,20.574ZM19.972,15.24C18.072,12.764 13.119,13.527 10.83,15.046C8.541,16.565 5.877,19.617 6.259,24.001C6.64,28.385 10.074,31.048 11.975,31.048C13.688,31.048 14.638,30.098 15.214,28.003C15.79,25.714 17.69,23.238 19.972,20.574C22.448,17.716 19.972,15.24 19.972,15.24ZM16.358,20.567C15.595,20.567 15.019,19.998 15.019,19.242C15.019,18.487 15.595,17.904 16.358,17.904C17.121,17.904 17.69,18.479 17.69,19.242C17.69,20.005 17.114,20.567 16.358,20.567Z" fill="#D70F64"/>
</svg>
