<svg width="276" height="50" viewBox="0 0 276 50" fill="none" xmlns="http://www.w3.org/2000/svg" xmlns:xlink="http://www.w3.org/1999/xlink">
<path d="M85.212,2.351C88,0.638 91.321,-0.04 94.564,0.002C99.442,0.175 104.3,1.449 108.595,3.778C105.854,6.215 102.961,8.48 100.178,10.879C98.351,10.444 96.464,9.747 94.57,10.181C93.304,10.461 92.017,11.067 91.274,12.182C90.529,13.287 90.622,14.884 91.53,15.872C92.604,17.085 94.192,17.631 95.679,18.141C98.976,19.179 102.442,19.952 105.354,21.905C107.287,23.158 108.904,24.957 109.715,27.126C110.511,29.145 110.619,31.364 110.458,33.509C110.292,36.385 109.574,39.3 107.955,41.717C106.278,44.253 103.618,45.972 100.834,47.076C94.933,49.308 88.236,48.828 82.444,46.493C80.335,45.645 78.33,44.558 76.469,43.252C78.506,40.448 80.575,37.666 82.673,34.907C85.223,36.07 87.808,37.176 90.483,38.011C92.288,38.643 94.36,38.359 95.991,37.389C97.239,36.666 98.061,35.274 98.039,33.825C98.11,32.612 97.37,31.51 96.433,30.813C94.502,29.38 92.092,28.894 89.834,28.213C86.966,27.343 83.97,26.45 81.652,24.462C79.753,22.856 78.738,20.43 78.453,18.004C78.138,15.066 78.303,12.01 79.419,9.244C80.53,6.366 82.568,3.94 85.212,2.351ZM15.461,1.167C19.356,1.171 23.251,1.167 27.146,1.171L27.146,27.972C27.146,30.845 27.32,33.752 26.784,36.597C26.264,39.432 25.089,42.212 23.065,44.306C20.854,46.63 17.725,47.909 14.577,48.276C12.293,48.537 9.927,48.537 7.722,47.816C4.481,46.822 1.82,44.456 0,41.646C2.296,39.211 4.618,36.805 6.913,34.368C7.784,35.51 8.713,36.631 9.858,37.515C10.633,38.104 11.643,38.486 12.615,38.197C13.641,38.007 14.474,37.209 14.851,36.255C15.329,35.08 15.445,33.794 15.459,32.539L15.461,1.167ZM33.463,1.187C37.356,1.173 41.251,1.149 45.145,1.173C45.165,8.53 45.146,15.894 45.152,23.253C45.165,26.086 45.039,28.962 45.716,31.741C46.159,33.606 47.061,35.475 48.672,36.6C50.468,37.866 52.781,38.091 54.913,37.886C56.742,37.698 58.582,36.892 59.698,35.391C60.662,34.134 61.15,32.588 61.419,31.046C61.727,29.227 61.795,27.373 61.791,25.527C61.79,17.41 61.795,9.286 61.789,1.167C65.683,1.156 69.578,1.167 73.474,1.164C73.478,10.209 73.474,19.256 73.476,28.301C73.469,31.37 73.385,34.494 72.473,37.448C71.667,40.118 70.071,42.482 67.897,44.229C65.337,46.301 62.148,47.436 58.94,48.015C55.346,48.636 51.643,48.621 48.055,47.969C44.88,47.368 41.726,46.208 39.205,44.132C37.873,43.013 36.704,41.679 35.851,40.159C34.329,37.512 33.767,34.439 33.582,31.426C33.419,29.09 33.482,26.746 33.469,24.402C33.463,16.667 33.465,8.928 33.463,1.187ZM110.555,1.171C123.21,1.167 135.865,1.171 148.514,1.171C148.556,4.586 148.587,8.004 148.496,11.418L135.399,11.416C135.383,23.571 135.417,35.725 135.41,47.879C131.513,47.889 127.615,47.88 123.722,47.885C123.663,35.732 123.711,23.574 123.696,11.42C119.322,11.418 114.951,11.409 110.581,11.425C110.524,8.007 110.573,4.589 110.555,1.171ZM163.239,1.171C172.893,1.167 182.546,1.167 192.203,1.171L192.201,11.394C186.446,11.455 180.69,11.402 174.935,11.422C174.935,14.071 174.93,16.718 174.937,19.371C179.725,19.435 184.515,19.385 189.306,19.404C189.291,22.847 189.331,26.293 189.285,29.736C188.24,29.872 187.148,29.755 186.085,29.793C182.367,29.793 178.651,29.789 174.933,29.793C174.941,32.406 174.922,35.013 174.944,37.625C180.695,37.62 186.45,37.625 192.203,37.621C192.201,41.041 192.205,44.465 192.199,47.887L163.237,47.887L163.239,1.171ZM212.194,1.184C216.48,1.187 220.764,1.18 225.048,1.187C230.914,16.755 236.742,32.327 242.614,47.887C238.314,47.909 234.014,47.889 229.714,47.898C228.716,45.226 227.728,42.552 226.748,39.874C221.218,39.854 215.686,39.861 210.156,39.87C209.098,42.549 208.024,45.22 206.97,47.898C202.702,47.859 198.431,47.896 194.165,47.874C200.18,32.312 206.176,16.745 212.194,1.184ZM236.636,1.178C249.3,1.156 261.964,1.171 274.628,1.171C274.62,4.587 274.636,8.002 274.62,11.416C270.242,11.413 265.862,11.427 261.482,11.411C261.44,23.567 261.524,35.729 261.49,47.885C257.588,47.878 253.69,47.89 249.792,47.878C249.756,35.725 249.788,23.571 249.776,11.418C245.624,11.418 241.468,11.413 237.316,11.422C237.082,11.42 236.848,11.387 236.62,11.323C236.656,7.943 236.618,4.558 236.636,1.178Z" fill="#FF3131"/>
<path d="M216.292,12.219C219.806,17.983 223.361,23.723 226.865,29.492C224.999,29.447 223.132,29.319 221.269,29.297C221.64,31.215 222.038,33.126 222.425,35.039C221.433,35.231 220.452,35.503 219.446,35.609C219.091,33.698 218.684,31.796 218.3,29.891C216.592,30.616 214.944,31.475 213.241,32.216C213.691,28.734 214.294,25.27 214.802,21.794C215.308,18.604 215.757,15.407 216.292,12.219Z" fill="#FFFFFF"/>
</svg>
