<svg width="78" height="92" viewBox="0 0 78 92" fill="none" xmlns="http://www.w3.org/2000/svg" xmlns:xlink="http://www.w3.org/1999/xlink">
<path d="M76.5,52C76.5,50.619 75.381,49.5 74,49.5C72.619,49.5 71.5,50.619 71.5,52L76.5,52ZM74,88L74,90.5C75.381,90.5 76.5,89.381 76.5,88L74,88ZM2,88L-0.5,88C-0.5,89.381 0.619,90.5 2,90.5L2,88ZM4.5,52C4.5,50.619 3.381,49.5 2,49.5C0.619,49.5 -0.5,50.619 -0.5,52L4.5,52ZM71.5,52L71.5,88L76.5,88L76.5,52L71.5,52ZM74,85.5L2,85.5L2,90.5L74,90.5L74,85.5ZM4.5,88L4.5,52L-0.5,52L-0.5,88L4.5,88Z" fill="#474747"/>
<line x1="24" y1="-2.5" x2="52" y2="-2.5" stroke="#474747" stroke-width="2.5" stroke-miterlimit="3.999327" stroke-linecap="round" stroke-linejoin="round"/>
<path d="M36.232,50.232C35.256,51.209 35.256,52.791 36.232,53.768C37.209,54.744 38.791,54.744 39.768,53.768L36.232,50.232ZM56.768,36.768C57.744,35.791 57.744,34.209 56.768,33.232C55.791,32.256 54.209,32.256 53.232,33.232L56.768,36.768ZM39.768,53.768L56.768,36.768L53.232,33.232L36.232,50.232L39.768,53.768Z" fill="#AD343E"/>
<line x1="35.5" y1="0" x2="35.5" y2="6" stroke="#474747" stroke-width="2.5" stroke-miterlimit="3.999327" stroke-linecap="round" stroke-linejoin="round"/>
<path d="M71.5,52C71.5,70.502 56.502,85.5 38,85.5L38,90.5C59.263,90.5 76.5,73.263 76.5,52L71.5,52ZM38,85.5C19.498,85.5 4.5,70.502 4.5,52L-0.5,52C-0.5,73.263 16.737,90.5 38,90.5L38,85.5ZM4.5,52C4.5,33.498 19.498,18.5 38,18.5L38,13.5C16.737,13.5 -0.5,30.737 -0.5,52L4.5,52ZM38,18.5C56.502,18.5 71.5,33.498 71.5,52L76.5,52C76.5,30.737 59.263,13.5 38,13.5L38,18.5Z" fill="#474747"/>
<line x1="35.5" y1="28" x2="35.5" y2="32" stroke="#474747" stroke-width="2.5" stroke-miterlimit="3.999327" stroke-linecap="round" stroke-linejoin="round"/>
<line x1="58" y1="49.5" x2="62" y2="49.5" stroke="#474747" stroke-width="2.5" stroke-miterlimit="3.999327" stroke-linecap="round" stroke-linejoin="round"/>
<path d="M53.202,70.738C54.179,71.714 55.762,71.714 56.738,70.738C57.714,69.762 57.714,68.179 56.738,67.202L53.202,70.738ZM53.91,64.374C52.934,63.398 51.351,63.398 50.374,64.374C49.398,65.351 49.398,66.934 50.374,67.91L53.91,64.374ZM56.738,67.202L53.91,64.374L50.374,67.91L53.202,70.738L56.738,67.202Z" fill="#474747"/>
<line x1="35.5" y1="72" x2="35.5" y2="76" stroke="#474747" stroke-width="2.5" stroke-miterlimit="3.999327" stroke-linecap="round" stroke-linejoin="round"/>
<path d="M19.262,67.202C18.286,68.179 18.286,69.762 19.262,70.738C20.238,71.714 21.821,71.714 22.798,70.738L19.262,67.202ZM25.626,67.91C26.602,66.934 26.602,65.351 25.626,64.374C24.649,63.398 23.066,63.398 22.09,64.374L25.626,67.91ZM22.798,70.738L25.626,67.91L22.09,64.374L19.262,67.202L22.798,70.738Z" fill="#474747"/>
<line x1="14" y1="49.5" x2="18" y2="49.5" stroke="#474747" stroke-width="2.5" stroke-miterlimit="3.999327" stroke-linecap="round" stroke-linejoin="round"/>
<path d="M22.798,33.262C21.821,32.286 20.238,32.286 19.262,33.262C18.286,34.239 18.286,35.821 19.262,36.798L22.798,33.262ZM22.09,39.626C23.066,40.602 24.649,40.602 25.626,39.626C26.602,38.649 26.602,37.067 25.626,36.09L22.09,39.626ZM19.262,36.798L22.09,39.626L25.626,36.09L22.798,33.262L19.262,36.798Z" fill="#474747"/>
</svg>
