<svg width="32" height="24" viewBox="0 0 32 24" fill="none" xmlns="http://www.w3.org/2000/svg" xmlns:xlink="http://www.w3.org/1999/xlink">
<path d="M3.332,4.752C2.643,4.292 1.711,4.479 1.252,5.168C0.792,5.857 0.979,6.789 1.668,7.248L3.332,4.752ZM14.336,13.891L13.504,15.139L13.504,15.139L14.336,13.891ZM17.664,13.891L16.832,12.643L16.832,12.643L17.664,13.891ZM30.332,7.248C31.021,6.789 31.208,5.857 30.748,5.168C30.289,4.479 29.357,4.292 28.668,4.752L30.332,7.248ZM5.5,3L26.5,3L26.5,0L5.5,0L5.5,3ZM28,4.5L28,19.5L31,19.5L31,4.5L28,4.5ZM26.5,21L5.5,21L5.5,24L26.5,24L26.5,21ZM4,19.5L4,4.5L1,4.5L1,19.5L4,19.5ZM5.5,21C4.672,21 4,20.328 4,19.5L1,19.5C1,21.985 3.015,24 5.5,24L5.5,21ZM28,19.5C28,20.328 27.328,21 26.5,21L26.5,24C28.985,24 31,21.985 31,19.5L28,19.5ZM26.5,3C27.328,3 28,3.672 28,4.5L31,4.5C31,2.015 28.985,0 26.5,0L26.5,3ZM5.5,0C3.015,0 1,2.015 1,4.5L4,4.5C4,3.672 4.672,3 5.5,3L5.5,0ZM1.668,7.248L13.504,15.139L15.168,12.643L3.332,4.752L1.668,7.248ZM18.496,15.139L30.332,7.248L28.668,4.752L16.832,12.643L18.496,15.139ZM13.504,15.139C15.015,16.146 16.985,16.146 18.496,15.139L16.832,12.643C16.328,12.978 15.672,12.978 15.168,12.643L13.504,15.139Z" fill="#FFFFFF"/>
</svg>
