<svg width="32" height="32" viewBox="0 0 32 32" fill="none" xmlns="http://www.w3.org/2000/svg" xmlns:xlink="http://www.w3.org/1999/xlink">
<path d="M11.842,3.526L10.419,4L10.419,4L11.842,3.526ZM14.089,10.266L12.666,10.74L12.666,10.74L14.089,10.266ZM13.336,12.082L14.007,13.423L14.007,13.423L13.336,12.082ZM9.95,13.775L9.28,12.433C8.56,12.793 8.252,13.657 8.583,14.391L9.95,13.775ZM18.225,22.05L17.609,23.417C18.343,23.748 19.207,23.44 19.567,22.72L18.225,22.05ZM19.918,18.664L18.577,17.993L18.577,17.993L19.918,18.664ZM21.734,17.911L21.26,19.334L21.26,19.334L21.734,17.911ZM28.474,20.158L28.949,18.735L28.949,18.735L28.474,20.158ZM5.5,1C3.015,1 1,3.015 1,5.5L4,5.5C4,4.672 4.672,4 5.5,4L5.5,1ZM10.419,1L5.5,1L5.5,4L10.419,4L10.419,1ZM13.265,3.051C12.857,1.826 11.71,1 10.419,1L10.419,4L10.419,4L13.265,3.051ZM15.512,9.791L13.265,3.051L10.419,4L12.666,10.74L15.512,9.791ZM14.007,13.423C15.343,12.756 15.984,11.208 15.512,9.791L12.666,10.74L12.666,10.74L14.007,13.423ZM10.621,15.116L14.007,13.423L12.666,10.74L9.28,12.433L10.621,15.116ZM18.842,20.682C15.508,19.179 12.821,16.492 11.318,13.158L8.583,14.391C10.387,18.392 13.608,21.613 17.609,23.417L18.842,20.682ZM18.577,17.993L16.884,21.379L19.567,22.72L21.26,19.334L18.577,17.993ZM22.209,16.488C20.792,16.016 19.244,16.657 18.577,17.993L21.26,19.334L21.26,19.334L22.209,16.488ZM28.949,18.735L22.209,16.488L21.26,19.334L28,21.581L28.949,18.735ZM31,21.581C31,20.29 30.174,19.143 28.949,18.735L28,21.581L28,21.581L31,21.581ZM31,26.5L31,21.581L28,21.581L28,26.5L31,26.5ZM26.5,31C28.985,31 31,28.985 31,26.5L28,26.5C28,27.328 27.328,28 26.5,28L26.5,31ZM25,31L26.5,31L26.5,28L25,28L25,31ZM1,7C1,20.255 11.745,31 25,31L25,28C13.402,28 4,18.598 4,7L1,7ZM1,5.5L1,7L4,7L4,5.5L1,5.5Z" fill="#FFFFFF"/>
</svg>
