<svg width="28" height="28" viewBox="0 0 28 28" fill="none" xmlns="http://www.w3.org/2000/svg" xmlns:xlink="http://www.w3.org/1999/xlink">
<path d="M7.167,7.333C7.167,8.162 7.838,8.833 8.667,8.833C9.495,8.833 10.167,8.162 10.167,7.333L7.167,7.333ZM10.167,2C10.167,1.172 9.495,0.5 8.667,0.5C7.838,0.5 7.167,1.172 7.167,2L10.167,2ZM17.833,7.333C17.833,8.162 18.505,8.833 19.333,8.833C20.162,8.833 20.833,8.162 20.833,7.333L17.833,7.333ZM20.833,2C20.833,1.172 20.162,0.5 19.333,0.5C18.505,0.5 17.833,1.172 17.833,2L20.833,2ZM7.333,11.167C6.505,11.167 5.833,11.838 5.833,12.667C5.833,13.495 6.505,14.167 7.333,14.167L7.333,11.167ZM20.667,14.167C21.495,14.167 22.167,13.495 22.167,12.667C22.167,11.838 21.495,11.167 20.667,11.167L20.667,14.167ZM4.667,6.167L23.333,6.167L23.333,3.167L4.667,3.167L4.667,6.167ZM24.5,7.333L24.5,23.333L27.5,23.333L27.5,7.333L24.5,7.333ZM23.333,24.5L4.667,24.5L4.667,27.5L23.333,27.5L23.333,24.5ZM3.5,23.333L3.5,7.333L0.5,7.333L0.5,23.333L3.5,23.333ZM4.667,24.5C4.022,24.5 3.5,23.978 3.5,23.333L0.5,23.333C0.5,25.635 2.365,27.5 4.667,27.5L4.667,24.5ZM24.5,23.333C24.5,23.978 23.978,24.5 23.333,24.5L23.333,27.5C25.635,27.5 27.5,25.635 27.5,23.333L24.5,23.333ZM23.333,6.167C23.978,6.167 24.5,6.689 24.5,7.333L27.5,7.333C27.5,5.032 25.635,3.167 23.333,3.167L23.333,6.167ZM4.667,3.167C2.365,3.167 0.5,5.032 0.5,7.333L3.5,7.333C3.5,6.689 4.022,6.167 4.667,6.167L4.667,3.167ZM10.167,7.333L10.167,2L7.167,2L7.167,7.333L10.167,7.333ZM20.833,7.333L20.833,2L17.833,2L17.833,7.333L20.833,7.333ZM7.333,14.167L20.667,14.167L20.667,11.167L7.333,11.167L7.333,14.167Z" transform="rotate(0 14 14)" fill="#737865"/>
</svg>
