<svg width="36" height="42" viewBox="0 0 36 42" fill="none" xmlns="http://www.w3.org/2000/svg" xmlns:xlink="http://www.w3.org/1999/xlink">
<path d="M8.1,27.899C2.633,22.432 2.633,13.568 8.1,8.1L5.272,5.272C-1.757,12.302 -1.757,23.698 5.272,30.728L8.1,27.899ZM8.1,8.1C13.568,2.633 22.432,2.633 27.899,8.1L30.728,5.272C23.698,-1.757 12.302,-1.757 5.272,5.272L8.1,8.1ZM27.899,8.1C33.367,13.568 33.367,22.432 27.899,27.899L30.728,30.728C37.757,23.698 37.757,12.302 30.728,5.272L27.899,8.1ZM27.899,27.899C27.896,27.903 27.892,27.907 27.888,27.91C27.885,27.914 27.881,27.918 27.877,27.922C27.874,27.925 27.87,27.929 27.866,27.933C27.863,27.936 27.859,27.94 27.855,27.944C27.851,27.947 27.848,27.951 27.844,27.955C27.84,27.959 27.837,27.962 27.833,27.966C27.829,27.97 27.825,27.974 27.822,27.977C27.818,27.981 27.814,27.985 27.81,27.989C27.806,27.993 27.803,27.996 27.799,28C27.795,28.004 27.791,28.008 27.787,28.012C27.784,28.015 27.78,28.019 27.776,28.023C27.772,28.027 27.768,28.031 27.764,28.035C27.761,28.038 27.757,28.042 27.753,28.046C27.749,28.05 27.745,28.054 27.741,28.058C27.737,28.062 27.734,28.065 27.73,28.069C27.726,28.073 27.722,28.077 27.718,28.081C27.714,28.085 27.71,28.089 27.706,28.093C27.702,28.097 27.698,28.101 27.694,28.104C27.691,28.108 27.687,28.112 27.683,28.116C27.679,28.12 27.675,28.124 27.671,28.128C27.667,28.132 27.663,28.136 27.659,28.14C27.655,28.144 27.651,28.148 27.647,28.152C27.643,28.156 27.639,28.16 27.635,28.164C27.631,28.168 27.627,28.172 27.623,28.176C27.619,28.18 27.615,28.184 27.611,28.188C27.607,28.192 27.603,28.196 27.599,28.2C27.595,28.204 27.591,28.208 27.587,28.212C27.583,28.216 27.578,28.221 27.574,28.225C27.57,28.229 27.566,28.233 27.562,28.237C27.558,28.241 27.554,28.245 27.55,28.249C27.546,28.253 27.542,28.257 27.537,28.262C27.533,28.266 27.529,28.27 27.525,28.274C27.521,28.278 27.517,28.282 27.513,28.286C27.509,28.29 27.504,28.295 27.5,28.299C27.496,28.303 27.492,28.307 27.488,28.311C27.484,28.315 27.479,28.32 27.475,28.324C27.471,28.328 27.467,28.332 27.463,28.336C27.458,28.341 27.454,28.345 27.45,28.349C27.446,28.353 27.442,28.357 27.437,28.362C27.433,28.366 27.429,28.37 27.425,28.374C27.42,28.379 27.416,28.383 27.412,28.387C27.408,28.391 27.403,28.396 27.399,28.4C27.395,28.404 27.39,28.408 27.386,28.413C27.382,28.417 27.378,28.421 27.373,28.426C27.369,28.43 27.365,28.434 27.36,28.439C27.356,28.443 27.352,28.447 27.347,28.452C27.343,28.456 27.339,28.46 27.334,28.465C27.33,28.469 27.326,28.473 27.321,28.478C27.317,28.482 27.313,28.486 27.308,28.491C27.304,28.495 27.3,28.499 27.295,28.504C27.291,28.508 27.286,28.512 27.282,28.517C27.278,28.521 27.273,28.526 27.269,28.53C27.265,28.534 27.26,28.539 27.256,28.543C27.251,28.548 27.247,28.552 27.242,28.557C27.238,28.561 27.234,28.565 27.229,28.57C27.225,28.574 27.22,28.579 27.216,28.583C27.211,28.588 27.207,28.592 27.202,28.597C27.198,28.601 27.193,28.606 27.189,28.61C27.184,28.615 27.18,28.619 27.175,28.624C27.171,28.628 27.166,28.633 27.162,28.637C27.157,28.642 27.153,28.646 27.148,28.651C27.144,28.655 27.139,28.66 27.135,28.664C27.13,28.669 27.126,28.673 27.121,28.678C27.117,28.682 27.112,28.687 27.108,28.691C27.103,28.696 27.098,28.701 27.094,28.705C27.089,28.71 27.085,28.714 27.08,28.719C27.076,28.723 27.071,28.728 27.066,28.733C27.062,28.737 27.057,28.742 27.053,28.746C27.048,28.751 27.043,28.756 27.039,28.76C27.034,28.765 27.03,28.769 27.025,28.774C27.02,28.779 27.016,28.783 27.011,28.788C27.006,28.793 27.002,28.797 26.997,28.802C26.992,28.807 26.988,28.811 26.983,28.816C26.978,28.821 26.974,28.825 26.969,28.83C26.964,28.835 26.96,28.839 26.955,28.844C26.95,28.849 26.946,28.853 26.941,28.858C26.936,28.863 26.931,28.868 26.927,28.872C26.922,28.877 26.917,28.882 26.913,28.886C26.908,28.891 26.903,28.896 26.898,28.901C26.894,28.905 26.889,28.91 26.884,28.915C26.879,28.92 26.875,28.924 26.87,28.929C26.865,28.934 26.86,28.939 26.856,28.943C26.851,28.948 26.846,28.953 26.841,28.958C26.836,28.963 26.832,28.967 26.827,28.972C26.822,28.977 26.817,28.982 26.812,28.987C26.808,28.991 26.803,28.996 26.798,29.001C26.793,29.006 26.788,29.011 26.784,29.015C26.779,29.02 26.774,29.025 26.769,29.03C26.764,29.035 26.759,29.04 26.754,29.044C26.75,29.049 26.745,29.054 26.74,29.059C26.735,29.064 26.73,29.069 26.725,29.074C26.72,29.079 26.716,29.083 26.711,29.088C26.706,29.093 26.701,29.098 26.696,29.103C26.691,29.108 26.686,29.113 26.681,29.118C26.676,29.123 26.671,29.128 26.667,29.132C26.662,29.137 26.657,29.142 26.652,29.147C26.647,29.152 26.642,29.157 26.637,29.162C26.632,29.167 26.627,29.172 26.622,29.177C26.617,29.182 26.612,29.187 26.607,29.192C26.602,29.197 26.597,29.202 26.592,29.207C26.587,29.212 26.582,29.217 26.577,29.222C26.572,29.227 26.567,29.232 26.562,29.237C26.557,29.242 26.552,29.247 26.547,29.252C26.542,29.257 26.537,29.262 26.532,29.267C26.527,29.272 26.522,29.277 26.517,29.282C26.512,29.287 26.507,29.292 26.502,29.297C26.497,29.302 26.492,29.307 26.487,29.312C26.482,29.317 26.477,29.322 26.472,29.327C26.467,29.332 26.462,29.337 26.457,29.342C26.452,29.347 26.447,29.352 26.441,29.358C26.436,29.363 26.431,29.368 26.426,29.373C26.421,29.378 26.416,29.383 26.411,29.388C26.406,29.393 26.401,29.398 26.396,29.403C26.391,29.408 26.385,29.414 26.38,29.419C26.375,29.424 26.37,29.429 26.365,29.434C26.36,29.439 26.355,29.444 26.349,29.449C26.344,29.455 26.339,29.46 26.334,29.465C26.329,29.47 26.324,29.475 26.319,29.48C26.313,29.486 26.308,29.491 26.303,29.496C26.298,29.501 26.293,29.506 26.288,29.511C26.282,29.517 26.277,29.522 26.272,29.527C26.267,29.532 26.262,29.537 26.256,29.543C26.251,29.548 26.246,29.553 26.241,29.558C26.236,29.563 26.23,29.569 26.225,29.574C26.22,29.579 26.215,29.584 26.21,29.589C26.204,29.595 26.199,29.6 26.194,29.605C26.189,29.61 26.183,29.616 26.178,29.621C26.173,29.626 26.168,29.631 26.162,29.637C26.157,29.642 26.152,29.647 26.147,29.652C26.141,29.658 26.136,29.663 26.131,29.668C26.125,29.674 26.12,29.679 26.115,29.684C26.11,29.689 26.104,29.695 26.099,29.7C26.094,29.705 26.088,29.711 26.083,29.716C26.078,29.721 26.073,29.726 26.067,29.732C26.062,29.737 26.057,29.742 26.051,29.748C26.046,29.753 26.041,29.758 26.035,29.764C26.03,29.769 26.025,29.774 26.019,29.78C26.014,29.785 26.009,29.79 26.003,29.796C25.998,29.801 25.993,29.806 25.987,29.812C25.982,29.817 25.976,29.822 25.971,29.828C25.966,29.833 25.96,29.839 25.955,29.844C25.95,29.849 25.944,29.855 25.939,29.86C25.934,29.865 25.928,29.871 25.923,29.876C25.917,29.882 25.912,29.887 25.907,29.892C25.901,29.898 25.896,29.903 25.89,29.909C25.885,29.914 25.88,29.919 25.874,29.925C25.869,29.93 25.863,29.936 25.858,29.941C25.852,29.947 25.847,29.952 25.842,29.957C25.836,29.963 25.831,29.968 25.825,29.974C25.82,29.979 25.814,29.985 25.809,29.99C25.803,29.996 25.798,30.001 25.793,30.006C25.787,30.012 25.782,30.017 25.776,30.023C25.771,30.028 25.765,30.034 25.76,30.039C25.754,30.045 25.749,30.05 25.743,30.056C25.738,30.061 25.732,30.067 25.727,30.072C25.721,30.078 25.716,30.083 25.71,30.089C25.705,30.094 25.699,30.1 25.694,30.105C25.688,30.111 25.683,30.116 25.677,30.122C25.672,30.127 25.666,30.133 25.661,30.138C25.655,30.144 25.65,30.149 25.644,30.155C25.639,30.16 25.633,30.166 25.628,30.171C25.622,30.177 25.616,30.183 25.611,30.188C25.605,30.194 25.6,30.199 25.594,30.205C25.589,30.21 25.583,30.216 25.578,30.221C25.572,30.227 25.566,30.233 25.561,30.238C25.555,30.244 25.55,30.249 25.544,30.255C25.539,30.26 25.533,30.266 25.527,30.272C25.522,30.277 25.516,30.283 25.511,30.288C25.505,30.294 25.499,30.3 25.494,30.305C25.488,30.311 25.483,30.316 25.477,30.322C25.471,30.328 25.466,30.333 25.46,30.339C25.455,30.344 25.449,30.35 25.443,30.356C25.438,30.361 25.432,30.367 25.427,30.372C25.421,30.378 25.415,30.384 25.41,30.389C25.404,30.395 25.398,30.401 25.393,30.406C25.387,30.412 25.381,30.418 25.376,30.423C25.37,30.429 25.364,30.435 25.359,30.44C25.353,30.446 25.347,30.452 25.342,30.457C25.336,30.463 25.33,30.468 25.325,30.474C25.319,30.48 25.313,30.486 25.308,30.491C25.302,30.497 25.296,30.503 25.291,30.508C25.285,30.514 25.279,30.52 25.274,30.525C25.268,30.531 25.262,30.537 25.257,30.542C25.251,30.548 25.245,30.554 25.24,30.559C25.234,30.565 25.228,30.571 25.222,30.577C25.217,30.582 25.211,30.588 25.205,30.594C25.2,30.599 25.194,30.605 25.188,30.611C25.182,30.617 25.177,30.622 25.171,30.628C25.165,30.634 25.159,30.64 25.154,30.645C25.148,30.651 25.142,30.657 25.136,30.663C25.131,30.668 25.125,30.674 25.119,30.68C25.113,30.686 25.108,30.691 25.102,30.697C25.096,30.703 25.09,30.709 25.085,30.714C25.079,30.72 25.073,30.726 25.067,30.732C25.062,30.737 25.056,30.743 25.05,30.749C25.044,30.755 25.039,30.76 25.033,30.766C25.027,30.772 25.021,30.778 25.015,30.784C25.01,30.789 25.004,30.795 24.998,30.801C24.992,30.807 24.986,30.813 24.981,30.818C24.975,30.824 24.969,30.83 24.963,30.836C24.957,30.842 24.952,30.847 24.946,30.853C24.94,30.859 24.934,30.865 24.928,30.871C24.923,30.876 24.917,30.882 24.911,30.888C24.905,30.894 24.899,30.9 24.893,30.906C24.888,30.911 24.882,30.917 24.876,30.923C24.87,30.929 24.864,30.935 24.858,30.941C24.853,30.946 24.847,30.952 24.841,30.958C24.835,30.964 24.829,30.97 24.823,30.976C24.818,30.981 24.812,30.987 24.806,30.993C24.8,30.999 24.794,31.005 24.788,31.011C24.782,31.017 24.777,31.022 24.771,31.028C24.765,31.034 24.759,31.04 24.753,31.046C24.747,31.052 24.741,31.058 24.735,31.064C24.73,31.069 24.724,31.075 24.718,31.081C24.712,31.087 24.706,31.093 24.7,31.099C24.694,31.105 24.688,31.111 24.682,31.117C24.677,31.122 24.671,31.128 24.665,31.134C24.659,31.14 24.653,31.146 24.647,31.152C24.641,31.158 24.635,31.164 24.629,31.17C24.623,31.176 24.618,31.181 24.612,31.187C24.606,31.193 24.6,31.199 24.594,31.205C24.588,31.211 24.582,31.217 24.576,31.223C24.57,31.229 24.564,31.235 24.558,31.241C24.552,31.247 24.547,31.252 24.541,31.258C24.535,31.264 24.529,31.27 24.523,31.276C24.517,31.282 24.511,31.288 24.505,31.294C24.499,31.3 24.493,31.306 24.487,31.312C24.481,31.318 24.475,31.324 24.469,31.33C24.463,31.336 24.457,31.342 24.451,31.348C24.446,31.353 24.44,31.359 24.434,31.365C24.428,31.371 24.422,31.377 24.416,31.383C24.41,31.389 24.404,31.395 24.398,31.401C24.392,31.407 24.386,31.413 24.38,31.419C24.374,31.425 24.368,31.431 24.362,31.437C24.356,31.443 24.35,31.449 24.344,31.455C24.338,31.461 24.332,31.467 24.326,31.473C24.32,31.479 24.314,31.485 24.308,31.491C24.302,31.497 24.296,31.503 24.29,31.509C24.284,31.515 24.278,31.521 24.272,31.527C24.266,31.533 24.26,31.539 24.254,31.545C24.248,31.551 24.242,31.557 24.236,31.563C24.23,31.569 24.224,31.575 24.218,31.581C24.212,31.587 24.206,31.593 24.2,31.599C24.194,31.605 24.188,31.611 24.182,31.617C24.176,31.623 24.17,31.629 24.164,31.635C24.158,31.641 24.152,31.647 24.146,31.653C24.14,31.659 24.134,31.665 24.128,31.671C24.122,31.677 24.116,31.683 24.11,31.689C24.104,31.695 24.098,31.701 24.092,31.707C24.086,31.713 24.08,31.719 24.074,31.725C24.068,31.731 24.062,31.737 24.056,31.743C24.049,31.75 24.043,31.756 24.037,31.762C24.031,31.768 24.025,31.774 24.019,31.78C24.013,31.786 24.007,31.792 24.001,31.798C23.995,31.804 23.989,31.81 23.983,31.816C23.977,31.822 23.971,31.828 23.965,31.834C23.959,31.84 23.953,31.846 23.947,31.852C23.941,31.858 23.935,31.864 23.928,31.871C23.922,31.877 23.916,31.883 23.91,31.889C23.904,31.895 23.898,31.901 23.892,31.907C23.886,31.913 23.88,31.919 23.874,31.925C23.868,31.931 23.862,31.937 23.856,31.943C23.85,31.949 23.843,31.956 23.837,31.962C23.831,31.968 23.825,31.974 23.819,31.98C23.813,31.986 23.807,31.992 23.801,31.998C23.795,32.004 23.789,32.01 23.783,32.016C23.777,32.022 23.77,32.028 23.764,32.035C23.758,32.041 23.752,32.047 23.746,32.053C23.74,32.059 23.734,32.065 23.728,32.071C23.722,32.077 23.716,32.083 23.71,32.089C23.703,32.096 23.697,32.102 23.691,32.108C23.685,32.114 23.679,32.12 23.673,32.126C23.667,32.132 23.661,32.138 23.655,32.144C23.649,32.15 23.642,32.157 23.636,32.163C23.63,32.169 23.624,32.175 23.618,32.181C23.612,32.187 23.606,32.193 23.6,32.199C23.594,32.205 23.588,32.211 23.581,32.218C23.575,32.224 23.569,32.23 23.563,32.236C23.557,32.242 23.551,32.248 23.545,32.254C23.539,32.26 23.532,32.267 23.526,32.273C23.52,32.279 23.514,32.285 23.508,32.291C23.502,32.297 23.496,32.303 23.49,32.309C23.484,32.315 23.477,32.322 23.471,32.328C23.465,32.334 23.459,32.34 23.453,32.346C23.447,32.352 23.441,32.358 23.435,32.364C23.428,32.371 23.422,32.377 23.416,32.383C23.41,32.389 23.404,32.395 23.398,32.401C23.392,32.407 23.385,32.413 23.379,32.42C23.117,32.682 23.052,32.747 22.789,33.01C22.658,33.141 22.773,33.026 22.641,33.158C22.51,33.289 22.625,33.174 22.494,33.305C22.477,33.322 22.473,33.326 22.457,33.342C22.44,33.359 22.436,33.363 22.42,33.379C22.414,33.385 22.388,33.411 22.383,33.416C22.367,33.432 22.362,33.437 22.346,33.453C22.281,33.518 22.264,33.535 22.199,33.6C22.133,33.666 22.19,33.609 22.125,33.674C22.092,33.706 22.084,33.715 22.052,33.747C22.019,33.78 22.048,33.751 22.015,33.784C22.009,33.79 22.003,33.796 21.997,33.802C21.991,33.808 21.984,33.815 21.978,33.821C21.881,33.918 22.003,33.796 21.905,33.894C21.872,33.927 21.864,33.935 21.832,33.967C21.799,34 21.791,34.008 21.759,34.04C21.694,34.105 21.751,34.048 21.686,34.113C21.67,34.129 21.629,34.17 21.613,34.186C21.484,34.315 21.452,34.347 21.324,34.475C21.195,34.604 21.164,34.635 21.037,34.762C20.989,34.809 21.013,34.786 20.966,34.833C20.926,34.873 20.97,34.829 20.93,34.869C20.924,34.875 20.919,34.88 20.913,34.886C20.907,34.892 20.901,34.898 20.895,34.904C20.889,34.91 20.883,34.916 20.877,34.922C20.871,34.928 20.865,34.933 20.86,34.939C20.844,34.955 20.84,34.959 20.824,34.975C20.818,34.981 20.813,34.986 20.807,34.992C20.801,34.998 20.795,35.004 20.789,35.01C20.783,35.016 20.777,35.022 20.772,35.027C20.766,35.033 20.76,35.039 20.754,35.045C20.692,35.107 20.536,35.263 20.475,35.324C20.444,35.355 20.437,35.362 20.406,35.393C20.398,35.401 20.379,35.42 20.372,35.427C20.366,35.433 20.36,35.439 20.355,35.444C20.349,35.45 20.343,35.456 20.337,35.462C20.332,35.467 20.326,35.473 20.32,35.479C20.315,35.484 20.309,35.49 20.303,35.496C20.297,35.501 20.292,35.507 20.286,35.513C20.28,35.519 20.275,35.524 20.269,35.53C20.239,35.56 20.265,35.534 20.235,35.564C20.215,35.584 20.221,35.578 20.201,35.598C20.156,35.643 20.178,35.621 20.133,35.666C20.103,35.696 20.096,35.703 20.066,35.733C20.006,35.793 19.992,35.807 19.932,35.867C19.814,35.985 19.918,35.881 19.8,35.999C19.683,36.116 19.786,36.013 19.67,36.129C19.612,36.187 19.695,36.104 19.637,36.162C19.632,36.167 19.626,36.173 19.621,36.178C19.616,36.183 19.61,36.189 19.605,36.194C19.548,36.251 19.598,36.201 19.541,36.258C19.535,36.264 19.53,36.269 19.525,36.274C19.519,36.28 19.514,36.285 19.509,36.29C19.503,36.296 19.498,36.301 19.493,36.306C19.487,36.312 19.482,36.317 19.477,36.322C19.47,36.329 19.452,36.347 19.445,36.354C19.431,36.368 19.427,36.372 19.413,36.386L22.242,39.214C22.247,39.209 22.252,39.203 22.258,39.198C22.263,39.193 22.268,39.188 22.273,39.182C22.279,39.177 22.284,39.172 22.289,39.167C22.295,39.161 22.3,39.156 22.305,39.151C22.311,39.145 22.316,39.14 22.321,39.135C22.326,39.129 22.332,39.124 22.337,39.119C22.422,39.033 22.284,39.172 22.369,39.087C22.374,39.081 22.38,39.076 22.385,39.071C22.39,39.065 22.396,39.06 22.401,39.055C22.43,39.026 22.405,39.051 22.433,39.023C22.448,39.008 22.451,39.005 22.466,38.99C22.471,38.985 22.476,38.979 22.482,38.974C22.487,38.969 22.493,38.963 22.498,38.958C22.498,38.958 22.759,38.697 22.761,38.695C22.82,38.636 22.835,38.621 22.894,38.561C22.984,38.472 22.872,38.584 22.962,38.494C22.967,38.488 22.973,38.483 22.979,38.477C22.984,38.472 22.99,38.466 22.996,38.46C23.001,38.455 23.007,38.449 23.012,38.443C23.018,38.438 23.024,38.432 23.029,38.426C23.04,38.416 23.053,38.402 23.063,38.392C23.069,38.387 23.075,38.381 23.08,38.375C23.086,38.37 23.092,38.364 23.097,38.358C23.158,38.297 23.071,38.385 23.132,38.324C23.137,38.319 23.143,38.313 23.149,38.307C23.154,38.301 23.16,38.296 23.166,38.29C23.172,38.284 23.177,38.279 23.183,38.273C23.189,38.267 23.194,38.261 23.2,38.256C23.208,38.248 23.227,38.229 23.235,38.221C23.265,38.191 23.273,38.183 23.304,38.152C23.364,38.091 23.52,37.936 23.582,37.873C23.676,37.78 23.559,37.897 23.653,37.803C23.659,37.797 23.665,37.791 23.67,37.785C23.676,37.78 23.682,37.774 23.688,37.768C23.751,37.705 23.661,37.795 23.723,37.732C23.786,37.669 23.696,37.76 23.759,37.697C23.767,37.689 23.786,37.669 23.794,37.662C23.81,37.646 23.85,37.606 23.865,37.59C23.913,37.543 23.889,37.567 23.937,37.519C23.968,37.487 23.941,37.515 23.972,37.483C23.978,37.477 23.984,37.471 23.99,37.465C23.996,37.46 24.002,37.454 24.008,37.448C24.072,37.384 24.088,37.368 24.152,37.304C24.216,37.24 24.124,37.332 24.188,37.268C24.194,37.262 24.2,37.256 24.206,37.25C24.212,37.244 24.218,37.238 24.224,37.232C24.256,37.2 24.264,37.192 24.296,37.159C24.304,37.151 24.325,37.131 24.333,37.123C24.37,37.086 24.331,37.125 24.369,37.087C24.375,37.081 24.381,37.075 24.387,37.069C24.393,37.063 24.399,37.057 24.405,37.051C24.411,37.045 24.417,37.039 24.423,37.032C24.429,37.026 24.435,37.02 24.442,37.014C24.458,36.998 24.498,36.958 24.514,36.942C24.53,36.925 24.535,36.921 24.551,36.905C24.583,36.873 24.555,36.901 24.587,36.869C24.62,36.836 24.628,36.828 24.66,36.796C24.666,36.789 24.672,36.783 24.679,36.777C24.685,36.771 24.691,36.765 24.697,36.759C24.703,36.753 24.709,36.747 24.715,36.741C24.721,36.735 24.727,36.728 24.733,36.722C24.733,36.722 24.807,36.649 24.807,36.649C24.813,36.643 24.819,36.637 24.825,36.631C24.831,36.625 24.837,36.619 24.843,36.612C24.843,36.612 24.88,36.576 24.88,36.576C24.924,36.532 24.91,36.546 24.954,36.502C25.019,36.437 24.925,36.531 24.99,36.465C24.999,36.457 25.019,36.437 25.027,36.429C25.158,36.298 25.044,36.412 25.174,36.281C25.207,36.249 25.179,36.277 25.211,36.244C25.228,36.228 25.232,36.224 25.248,36.208C25.281,36.175 25.289,36.167 25.322,36.134C25.519,35.937 25.421,36.035 25.618,35.838C25.793,35.663 25.738,35.718 25.913,35.543C25.935,35.521 25.965,35.491 25.987,35.469C26.036,35.42 25.974,35.481 26.024,35.432C26.056,35.399 26.028,35.428 26.06,35.395C26.067,35.389 26.073,35.383 26.079,35.377C26.085,35.371 26.091,35.365 26.097,35.359C26.103,35.352 26.11,35.346 26.116,35.34C26.122,35.334 26.128,35.328 26.134,35.322C26.14,35.316 26.146,35.309 26.153,35.303C26.159,35.297 26.165,35.291 26.171,35.285C26.177,35.279 26.183,35.273 26.189,35.266C26.196,35.26 26.202,35.254 26.208,35.248C26.214,35.242 26.22,35.236 26.226,35.23C26.232,35.224 26.238,35.217 26.245,35.211C26.251,35.205 26.257,35.199 26.263,35.193C26.269,35.187 26.275,35.181 26.281,35.175C26.287,35.168 26.294,35.162 26.3,35.156C26.306,35.15 26.312,35.144 26.318,35.138C26.324,35.132 26.33,35.126 26.336,35.119C26.343,35.113 26.349,35.107 26.355,35.101C26.361,35.095 26.367,35.089 26.373,35.083C26.379,35.077 26.385,35.07 26.391,35.064C26.398,35.058 26.404,35.052 26.41,35.046C26.416,35.04 26.422,35.034 26.428,35.028C26.434,35.022 26.44,35.015 26.446,35.009C26.453,35.003 26.459,34.997 26.465,34.991C26.471,34.985 26.477,34.979 26.483,34.973C26.489,34.967 26.495,34.961 26.501,34.954C26.508,34.948 26.514,34.942 26.52,34.936C26.526,34.93 26.532,34.924 26.538,34.918C26.544,34.912 26.55,34.906 26.556,34.9C26.562,34.893 26.568,34.887 26.575,34.881C26.581,34.875 26.587,34.869 26.593,34.863C26.599,34.857 26.605,34.851 26.611,34.845C26.617,34.839 26.623,34.833 26.629,34.826C26.635,34.82 26.642,34.814 26.648,34.808C26.654,34.802 26.66,34.796 26.666,34.79C26.672,34.784 26.678,34.778 26.684,34.772C26.69,34.766 26.696,34.76 26.702,34.754C26.708,34.748 26.714,34.741 26.72,34.735C26.727,34.729 26.733,34.723 26.739,34.717C26.745,34.711 26.751,34.705 26.757,34.699C26.763,34.693 26.769,34.687 26.775,34.681C26.781,34.675 26.787,34.669 26.793,34.663C26.799,34.657 26.805,34.651 26.811,34.644C26.817,34.638 26.823,34.632 26.83,34.626C26.836,34.62 26.842,34.614 26.848,34.608C26.854,34.602 26.86,34.596 26.866,34.59C26.872,34.584 26.878,34.578 26.884,34.572C26.89,34.566 26.896,34.56 26.902,34.554C26.908,34.548 26.914,34.542 26.92,34.536C26.926,34.53 26.932,34.524 26.938,34.518C26.944,34.512 26.95,34.506 26.956,34.499C26.962,34.493 26.968,34.487 26.974,34.481C26.98,34.475 26.986,34.469 26.992,34.463C26.999,34.457 27.005,34.451 27.011,34.445C27.017,34.439 27.023,34.433 27.029,34.427C27.035,34.421 27.041,34.415 27.047,34.409C27.053,34.403 27.059,34.397 27.065,34.391C27.071,34.385 27.077,34.379 27.083,34.373C27.089,34.367 27.095,34.361 27.101,34.355C27.107,34.349 27.113,34.343 27.119,34.337C27.125,34.331 27.131,34.325 27.137,34.319C27.143,34.313 27.149,34.307 27.155,34.301C27.161,34.295 27.167,34.289 27.172,34.283C27.178,34.277 27.184,34.271 27.19,34.265C27.196,34.259 27.202,34.253 27.208,34.248C27.214,34.242 27.22,34.236 27.226,34.23C27.232,34.224 27.238,34.218 27.244,34.212C27.25,34.206 27.256,34.2 27.262,34.194C27.268,34.188 27.274,34.182 27.28,34.176C27.286,34.17 27.292,34.164 27.298,34.158C27.304,34.152 27.31,34.146 27.316,34.14C27.322,34.134 27.327,34.128 27.333,34.122C27.339,34.116 27.345,34.111 27.351,34.105C27.357,34.099 27.363,34.093 27.369,34.087C27.375,34.081 27.381,34.075 27.387,34.069C27.393,34.063 27.399,34.057 27.405,34.051C27.411,34.045 27.416,34.039 27.422,34.034C27.428,34.028 27.434,34.022 27.44,34.016C27.446,34.01 27.452,34.004 27.458,33.998C27.464,33.992 27.47,33.986 27.476,33.98C27.481,33.974 27.487,33.969 27.493,33.963C27.499,33.957 27.505,33.951 27.511,33.945C27.517,33.939 27.523,33.933 27.529,33.927C27.534,33.921 27.54,33.915 27.546,33.91C27.552,33.904 27.558,33.898 27.564,33.892C27.57,33.886 27.576,33.88 27.581,33.874C27.587,33.868 27.593,33.863 27.599,33.857C27.605,33.851 27.611,33.845 27.617,33.839C27.623,33.833 27.628,33.827 27.634,33.822C27.64,33.816 27.646,33.81 27.652,33.804C27.658,33.798 27.664,33.792 27.669,33.786C27.675,33.781 27.681,33.775 27.687,33.769C27.693,33.763 27.699,33.757 27.704,33.751C27.71,33.746 27.716,33.74 27.722,33.734C27.728,33.728 27.734,33.722 27.739,33.716C27.745,33.711 27.751,33.705 27.757,33.699C27.763,33.693 27.768,33.687 27.774,33.682C27.78,33.676 27.786,33.67 27.792,33.664C27.797,33.658 27.803,33.653 27.809,33.647C27.815,33.641 27.821,33.635 27.826,33.629C27.832,33.624 27.838,33.618 27.844,33.612C27.85,33.606 27.855,33.6 27.861,33.595C27.867,33.589 27.873,33.583 27.879,33.577C27.884,33.572 27.89,33.566 27.896,33.56C27.902,33.554 27.907,33.548 27.913,33.543C27.919,33.537 27.925,33.531 27.93,33.525C27.936,33.52 27.942,33.514 27.948,33.508C27.953,33.502 27.959,33.497 27.965,33.491C27.971,33.485 27.976,33.479 27.982,33.474C27.988,33.468 27.994,33.462 27.999,33.457C28.005,33.451 28.011,33.445 28.017,33.439C28.022,33.434 28.028,33.428 28.034,33.422C28.039,33.416 28.045,33.411 28.051,33.405C28.057,33.399 28.062,33.394 28.068,33.388C28.074,33.382 28.079,33.377 28.085,33.371C28.091,33.365 28.096,33.359 28.102,33.354C28.108,33.348 28.113,33.342 28.119,33.337C28.125,33.331 28.131,33.325 28.136,33.32C28.142,33.314 28.148,33.308 28.153,33.303C28.159,33.297 28.165,33.291 28.17,33.286C28.176,33.28 28.182,33.274 28.187,33.269C28.193,33.263 28.199,33.257 28.204,33.252C28.21,33.246 28.215,33.24 28.221,33.235C28.227,33.229 28.232,33.223 28.238,33.218C28.244,33.212 28.249,33.207 28.255,33.201C28.261,33.195 28.266,33.19 28.272,33.184C28.277,33.178 28.283,33.173 28.289,33.167C28.294,33.162 28.3,33.156 28.305,33.15C28.311,33.145 28.317,33.139 28.322,33.134C28.328,33.128 28.334,33.122 28.339,33.117C28.345,33.111 28.35,33.106 28.356,33.1C28.361,33.094 28.367,33.089 28.373,33.083C28.378,33.078 28.384,33.072 28.389,33.067C28.395,33.061 28.4,33.055 28.406,33.05C28.412,33.044 28.417,33.039 28.423,33.033C28.428,33.028 28.434,33.022 28.439,33.017C28.445,33.011 28.45,33.005 28.456,33C28.462,32.994 28.467,32.989 28.473,32.983C28.478,32.978 28.484,32.972 28.489,32.967C28.495,32.961 28.5,32.956 28.506,32.95C28.511,32.945 28.517,32.939 28.522,32.934C28.528,32.928 28.533,32.923 28.539,32.917C28.544,32.912 28.55,32.906 28.555,32.901C28.561,32.895 28.566,32.89 28.572,32.884C28.577,32.879 28.583,32.873 28.588,32.868C28.594,32.862 28.599,32.857 28.605,32.851C28.61,32.846 28.615,32.84 28.621,32.835C28.626,32.829 28.632,32.824 28.637,32.819C28.643,32.813 28.648,32.808 28.654,32.802C28.659,32.797 28.665,32.791 28.67,32.786C28.675,32.78 28.681,32.775 28.686,32.77C28.692,32.764 28.697,32.759 28.703,32.753C28.708,32.748 28.713,32.742 28.719,32.737C28.724,32.732 28.73,32.726 28.735,32.721C28.74,32.715 28.746,32.71 28.751,32.705C28.757,32.699 28.762,32.694 28.767,32.689C28.773,32.683 28.778,32.678 28.783,32.672C28.789,32.667 28.794,32.662 28.8,32.656C28.805,32.651 28.81,32.646 28.816,32.64C28.821,32.635 28.826,32.629 28.832,32.624C28.837,32.619 28.842,32.613 28.848,32.608C28.853,32.603 28.858,32.597 28.864,32.592C28.869,32.587 28.874,32.581 28.88,32.576C28.885,32.571 28.89,32.566 28.896,32.56C28.901,32.555 28.906,32.55 28.912,32.544C28.917,32.539 28.922,32.534 28.927,32.528C28.933,32.523 28.938,32.518 28.943,32.513C28.949,32.507 28.954,32.502 28.959,32.497C28.964,32.491 28.97,32.486 28.975,32.481C28.98,32.476 28.986,32.47 28.991,32.465C28.996,32.46 29.001,32.455 29.007,32.449C29.012,32.444 29.017,32.439 29.022,32.434C29.027,32.428 29.033,32.423 29.038,32.418C29.043,32.413 29.048,32.407 29.054,32.402C29.059,32.397 29.064,32.392 29.069,32.387C29.074,32.381 29.08,32.376 29.085,32.371C29.09,32.366 29.095,32.361 29.1,32.355C29.106,32.35 29.111,32.345 29.116,32.34C29.121,32.335 29.126,32.329 29.132,32.324C29.137,32.319 29.142,32.314 29.147,32.309C29.152,32.304 29.157,32.299 29.162,32.293C29.168,32.288 29.173,32.283 29.178,32.278C29.183,32.273 29.188,32.268 29.193,32.263C29.198,32.257 29.204,32.252 29.209,32.247C29.214,32.242 29.219,32.237 29.224,32.232C29.229,32.227 29.234,32.222 29.239,32.216C29.244,32.211 29.25,32.206 29.255,32.201C29.26,32.196 29.265,32.191 29.27,32.186C29.275,32.181 29.28,32.176 29.285,32.171C29.29,32.166 29.295,32.161 29.3,32.156C29.305,32.15 29.31,32.145 29.315,32.14C29.321,32.135 29.326,32.13 29.331,32.125C29.336,32.12 29.341,32.115 29.346,32.11C29.351,32.105 29.356,32.1 29.361,32.095C29.366,32.09 29.371,32.085 29.376,32.08C29.381,32.075 29.386,32.07 29.391,32.065C29.396,32.06 29.401,32.055 29.406,32.05C29.411,32.045 29.416,32.04 29.421,32.035C29.426,32.03 29.431,32.025 29.436,32.02C29.441,32.015 29.446,32.01 29.451,32.005C29.455,32 29.46,31.995 29.465,31.99C29.47,31.986 29.475,31.981 29.48,31.976C29.485,31.971 29.49,31.966 29.495,31.961C29.5,31.956 29.505,31.951 29.51,31.946C29.515,31.941 29.52,31.936 29.524,31.931C29.529,31.927 29.534,31.922 29.539,31.917C29.544,31.912 29.549,31.907 29.554,31.902C29.559,31.897 29.563,31.892 29.568,31.888C29.573,31.883 29.578,31.878 29.583,31.873C29.588,31.868 29.593,31.863 29.597,31.858C29.602,31.854 29.607,31.849 29.612,31.844C29.617,31.839 29.622,31.834 29.626,31.829C29.631,31.825 29.636,31.82 29.641,31.815C29.646,31.81 29.651,31.805 29.655,31.801C29.66,31.796 29.665,31.791 29.67,31.786C29.674,31.781 29.679,31.777 29.684,31.772C29.689,31.767 29.694,31.762 29.698,31.758C29.703,31.753 29.708,31.748 29.713,31.743C29.717,31.739 29.722,31.734 29.727,31.729C29.732,31.724 29.736,31.72 29.741,31.715C29.746,31.71 29.75,31.705 29.755,31.701C29.76,31.696 29.765,31.691 29.769,31.687C29.774,31.682 29.779,31.677 29.783,31.672C29.788,31.668 29.793,31.663 29.797,31.658C29.802,31.654 29.807,31.649 29.811,31.644C29.816,31.64 29.821,31.635 29.825,31.63C29.83,31.626 29.835,31.621 29.839,31.616C29.844,31.612 29.849,31.607 29.853,31.603C29.858,31.598 29.863,31.593 29.867,31.589C29.872,31.584 29.876,31.579 29.881,31.575C29.886,31.57 29.89,31.566 29.895,31.561C29.899,31.556 29.904,31.552 29.909,31.547C29.913,31.543 29.918,31.538 29.922,31.534C29.927,31.529 29.931,31.524 29.936,31.52C29.941,31.515 29.945,31.511 29.95,31.506C29.954,31.502 29.959,31.497 29.963,31.493C29.968,31.488 29.972,31.483 29.977,31.479C29.981,31.474 29.986,31.47 29.99,31.465C29.995,31.461 29.999,31.456 30.004,31.452C30.008,31.447 30.013,31.443 30.017,31.438C30.022,31.434 30.026,31.43 30.031,31.425C30.035,31.421 30.04,31.416 30.044,31.412C30.049,31.407 30.053,31.403 30.058,31.398C30.062,31.394 30.066,31.389 30.071,31.385C30.075,31.381 30.08,31.376 30.084,31.372C30.089,31.367 30.093,31.363 30.097,31.359C30.102,31.354 30.106,31.35 30.111,31.345C30.115,31.341 30.119,31.337 30.124,31.332C30.128,31.328 30.132,31.323 30.137,31.319C30.141,31.315 30.146,31.31 30.15,31.306C30.154,31.302 30.159,31.297 30.163,31.293C30.167,31.289 30.172,31.284 30.176,31.28C30.18,31.276 30.185,31.271 30.189,31.267C30.193,31.263 30.197,31.258 30.202,31.254C30.206,31.25 30.21,31.245 30.215,31.241C30.219,31.237 30.223,31.233 30.227,31.228C30.232,31.224 30.236,31.22 30.24,31.216C30.245,31.211 30.249,31.207 30.253,31.203C30.257,31.199 30.261,31.194 30.266,31.19C30.27,31.186 30.274,31.182 30.278,31.177C30.283,31.173 30.287,31.169 30.291,31.165C30.295,31.161 30.299,31.156 30.304,31.152C30.308,31.148 30.312,31.144 30.316,31.14C30.32,31.136 30.324,31.131 30.329,31.127C30.333,31.123 30.337,31.119 30.341,31.115C30.345,31.111 30.349,31.106 30.354,31.102C30.358,31.098 30.362,31.094 30.366,31.09C30.37,31.086 30.374,31.082 30.378,31.078C30.382,31.073 30.386,31.069 30.391,31.065C30.395,31.061 30.399,31.057 30.403,31.053C30.407,31.049 30.411,31.045 30.415,31.041C30.419,31.037 30.423,31.033 30.427,31.029C30.431,31.025 30.435,31.021 30.439,31.017C30.443,31.013 30.447,31.009 30.451,31.004C30.455,31 30.459,30.996 30.463,30.992C30.467,30.988 30.471,30.984 30.475,30.98C30.479,30.976 30.483,30.972 30.487,30.969C30.491,30.965 30.495,30.961 30.499,30.957C30.503,30.953 30.507,30.949 30.511,30.945C30.515,30.941 30.519,30.937 30.523,30.933C30.527,30.929 30.531,30.925 30.535,30.921C30.539,30.917 30.543,30.913 30.546,30.909C30.55,30.906 30.554,30.902 30.558,30.898C30.562,30.894 30.566,30.89 30.57,30.886C30.574,30.882 30.577,30.878 30.581,30.875C30.585,30.871 30.589,30.867 30.593,30.863C30.597,30.859 30.601,30.855 30.604,30.851C30.608,30.848 30.612,30.844 30.616,30.84C30.62,30.836 30.623,30.832 30.627,30.829C30.631,30.825 30.635,30.821 30.639,30.817C30.642,30.813 30.646,30.81 30.65,30.806C30.654,30.802 30.657,30.798 30.661,30.795C30.665,30.791 30.669,30.787 30.672,30.783C30.676,30.78 30.68,30.776 30.684,30.772C30.687,30.768 30.691,30.765 30.695,30.761C30.698,30.757 30.702,30.754 30.706,30.75C30.71,30.746 30.713,30.743 30.717,30.739C30.721,30.735 30.724,30.732 30.728,30.728L27.899,27.899ZM16.587,36.386C13.939,33.738 10.097,29.896 8.1,27.899L5.272,30.728C7.269,32.725 11.11,36.566 13.759,39.215L16.587,36.386ZM22,18C22,20.209 20.209,22 18,22L18,26C22.418,26 26,22.418 26,18L22,18ZM18,22C15.791,22 14,20.209 14,18L10,18C10,22.418 13.582,26 18,26L18,22ZM14,18C14,15.791 15.791,14 18,14L18,10C13.582,10 10,13.582 10,18L14,18ZM18,14C20.209,14 22,15.791 22,18L26,18C26,13.582 22.418,10 18,10L18,14ZM19.413,36.386C18.632,37.167 17.368,37.167 16.587,36.386L13.759,39.215C16.103,41.559 19.899,41.557 22.242,39.214L19.413,36.386Z" fill="#FFFFFF"/>
</svg>
