<svg width="26" height="26" viewBox="0 0 26 26" fill="none" xmlns="http://www.w3.org/2000/svg" xmlns:xlink="http://www.w3.org/1999/xlink">
<path d="M14.57,8.047C14.57,7.219 13.898,6.547 13.07,6.547C12.242,6.547 11.57,7.219 11.57,8.047L14.57,8.047ZM13.07,13.07L11.57,13.07C11.57,13.468 11.728,13.85 12.009,14.131L13.07,13.07ZM15.777,17.898C16.363,18.484 17.312,18.484 17.898,17.898C18.484,17.313 18.484,16.363 17.898,15.777L15.777,17.898ZM22.873,13.07C22.873,18.484 18.484,22.873 13.07,22.873L13.07,25.873C20.141,25.873 25.873,20.141 25.873,13.07L22.873,13.07ZM13.07,22.873C7.656,22.873 3.268,18.484 3.268,13.07L0.268,13.07C0.268,20.141 5.999,25.873 13.07,25.873L13.07,22.873ZM3.268,13.07C3.268,7.657 7.656,3.268 13.07,3.268L13.07,0.268C5.999,0.268 0.268,6 0.268,13.07L3.268,13.07ZM13.07,3.268C18.484,3.268 22.873,7.657 22.873,13.07L25.873,13.07C25.873,6 20.141,0.268 13.07,0.268L13.07,3.268ZM11.57,8.047L11.57,13.07L14.57,13.07L14.57,8.047L11.57,8.047ZM12.009,14.131L15.777,17.898L17.898,15.777L14.131,12.01L12.009,14.131Z" fill="#FFFFFF"/>
</svg>
