<svg width="30" height="32" viewBox="0 0 30 32" fill="none" xmlns="http://www.w3.org/2000/svg" xmlns:xlink="http://www.w3.org/1999/xlink">
<path d="M9.842,3.526L8.419,4L8.419,4L9.842,3.526ZM12.089,10.266L10.666,10.74L10.666,10.74L12.089,10.266ZM11.336,12.082L12.007,13.423L12.007,13.423L11.336,12.082ZM7.951,13.775L7.28,12.433C6.56,12.793 6.252,13.657 6.583,14.391L7.951,13.775ZM16.225,22.05L15.609,23.417C16.343,23.748 17.207,23.44 17.567,22.72L16.225,22.05ZM17.918,18.664L16.577,17.993L16.577,17.993L17.918,18.664ZM19.734,17.911L19.26,19.334L19.26,19.334L19.734,17.911ZM26.474,20.158L26.949,18.735L26.949,18.735L26.474,20.158ZM3.5,1C1.015,1 -1,3.015 -1,5.5L2,5.5C2,4.672 2.672,4 3.5,4L3.5,1ZM8.419,1L3.5,1L3.5,4L8.419,4L8.419,1ZM11.265,3.051C10.857,1.826 9.71,1 8.419,1L8.419,4L8.419,4L11.265,3.051ZM13.512,9.791L11.265,3.051L8.419,4L10.666,10.74L13.512,9.791ZM12.007,13.423C13.343,12.756 13.984,11.208 13.512,9.791L10.666,10.74L10.666,10.74L12.007,13.423ZM8.621,15.116L12.007,13.423L10.666,10.74L7.28,12.433L8.621,15.116ZM16.842,20.682C13.508,19.179 10.821,16.492 9.318,13.158L6.583,14.391C8.387,18.392 11.608,21.613 15.609,23.417L16.842,20.682ZM16.577,17.993L14.884,21.379L17.567,22.72L19.26,19.334L16.577,17.993ZM20.209,16.488C18.792,16.016 17.244,16.657 16.577,17.993L19.26,19.334L19.26,19.334L20.209,16.488ZM26.949,18.735L20.209,16.488L19.26,19.334L26,21.581L26.949,18.735ZM29,21.581C29,20.29 28.174,19.143 26.949,18.735L26,21.581L26,21.581L29,21.581ZM29,26.5L29,21.581L26,21.581L26,26.5L29,26.5ZM24.5,31C26.985,31 29,28.985 29,26.5L26,26.5C26,27.328 25.328,28 24.5,28L24.5,31ZM23,31L24.5,31L24.5,28L23,28L23,31ZM-1,7C-1,20.255 9.745,31 23,31L23,28C11.402,28 2,18.598 2,7L-1,7ZM-1,5.5L-1,7L2,7L2,5.5L-1,5.5Z" fill="#FFFFFF"/>
</svg>
