<svg width="40" height="40" viewBox="0 0 40 40" fill="none" xmlns="http://www.w3.org/2000/svg" xmlns:xlink="http://www.w3.org/1999/xlink">
<path d="M14.456,3.368L12.558,4L12.558,4L14.456,3.368ZM17.451,12.354L15.554,12.987L15.554,12.987L17.451,12.354ZM16.449,14.776L17.343,16.565L17.343,16.565L16.449,14.776ZM11.934,17.033L11.04,15.244C10.079,15.724 9.67,16.877 10.111,17.855L11.934,17.033ZM22.967,28.066L22.145,29.889C23.124,30.33 24.276,29.92 24.756,28.96L22.967,28.066ZM25.224,23.551L23.435,22.657L23.435,22.657L25.224,23.551ZM27.646,22.549L27.013,24.446L27.013,24.446L27.646,22.549ZM36.632,25.544L37.265,23.647L37.265,23.647L36.632,25.544ZM6,0C2.686,0 0,2.686 0,6L4,6C4,4.895 4.895,4 6,4L6,0ZM12.558,0L6,0L6,4L12.558,4L12.558,0ZM16.353,2.735C15.809,1.102 14.28,0 12.558,0L12.558,4L12.558,4L16.353,2.735ZM19.349,11.722L16.353,2.735L12.558,4L15.554,12.987L19.349,11.722ZM17.343,16.565C19.123,15.674 19.978,13.61 19.349,11.722L15.554,12.987L15.554,12.987L17.343,16.565ZM12.828,18.822L17.343,16.565L15.554,12.987L11.04,15.244L12.828,18.822ZM23.789,26.243C19.344,24.239 15.761,20.656 13.757,16.211L10.111,17.855C12.516,23.189 16.811,27.484 22.145,29.889L23.789,26.243ZM23.435,22.657L21.178,27.172L24.756,28.96L27.013,24.446L23.435,22.657ZM28.278,20.651C26.39,20.022 24.326,20.877 23.435,22.657L27.013,24.446L27.013,24.446L28.278,20.651ZM37.265,23.647L28.278,20.651L27.013,24.446L36,27.442L37.265,23.647ZM40,27.442C40,25.72 38.898,24.191 37.265,23.647L36,27.442L36,27.442L40,27.442ZM40,34L40,27.442L36,27.442L36,34L40,34ZM34,40C37.314,40 40,37.314 40,34L36,34C36,35.105 35.105,36 34,36L34,40ZM32,40L34,40L34,36L32,36L32,40ZM0,8C0,25.673 14.327,40 32,40L32,36C16.536,36 4,23.464 4,8L0,8ZM0,6L0,8L4,8L4,6L0,6Z" fill="#FFFFFF"/>
</svg>
