<svg width="114" height="110" viewBox="0 0 114 110" fill="none" xmlns="http://www.w3.org/2000/svg" xmlns:xlink="http://www.w3.org/1999/xlink">
<path d="M96.339,1.608C95.722,1.252 94.986,1.15 94.293,1.326C93.6,1.501 93.006,1.939 92.641,2.544L73.298,34.726C73.199,34.893 73.119,35.07 73.059,35.255C70.895,36.043 68.875,37.17 67.077,38.592C61.217,28.813 50.478,22.655 38.746,22.655C20.644,22.655 5.919,37.097 5.869,54.864L1.602,54.864L1.983,57.848C4.204,75.194 15.096,90.345 30.757,98.323L30.757,108.565L71.169,108.565C76.291,108.565 80.458,104.469 80.458,99.436L80.458,98.324C96.125,90.343 107.012,75.192 109.237,57.848L109.619,54.861L101.913,54.861C101.877,45.793 95.956,38.083 87.72,35.172L111.853,12.364C112.926,11.35 112.961,9.669 111.924,8.615C111.679,8.364 111.385,8.163 111.061,8.024C110.736,7.884 110.386,7.809 110.032,7.802C109.678,7.795 109.326,7.857 108.996,7.984C108.666,8.111 108.364,8.3 108.109,8.542L81.226,33.953C80.985,33.943 80.745,33.916 80.5,33.916C80.345,33.916 80.196,33.938 80.044,33.941L97.292,5.24C97.472,4.94 97.59,4.608 97.64,4.264C97.69,3.919 97.67,3.568 97.581,3.23C97.493,2.893 97.338,2.576 97.125,2.298C96.911,2.019 96.644,1.785 96.339,1.608ZM38.745,27.961C49.08,27.961 58.5,33.675 63.186,42.627C61.478,44.934 60.266,47.56 59.626,50.343C57.479,40.953 48.94,33.914 38.745,33.914C26.97,33.914 17.391,43.304 17.341,54.862L11.271,54.862C11.32,40.022 23.623,27.961 38.745,27.961ZM38.745,45.187C33.293,45.187 28.856,49.521 28.805,54.862L22.744,54.862C22.794,46.229 29.949,39.221 38.745,39.221C47.544,39.221 54.706,46.229 54.751,54.862L48.682,54.862C48.634,49.521 44.197,45.187 38.745,45.187ZM43.277,54.864L34.213,54.864C34.238,53.697 34.726,52.587 35.573,51.77C36.421,50.953 37.56,50.495 38.748,50.493C39.935,50.495 41.073,50.954 41.92,51.771C42.767,52.588 43.254,53.698 43.277,54.864ZM103.395,60.169C100.393,75.586 89.748,88.729 74.995,95.024L66.349,95.024L66.349,100.331L74.937,100.331C74.735,101.164 74.253,101.905 73.57,102.436C72.887,102.968 72.041,103.258 71.17,103.26L36.161,103.26L36.161,100.331L46.289,100.331L46.289,95.024L36.226,95.024C21.473,88.733 10.826,75.586 7.822,60.169L103.395,60.169ZM75.97,54.864C75.994,53.698 76.481,52.588 77.328,51.771C78.175,50.954 79.313,50.495 80.5,50.493C81.688,50.494 82.829,50.952 83.677,51.769C84.525,52.586 85.013,53.697 85.037,54.864L75.97,54.864ZM80.5,39.222C89.303,39.222 96.467,46.23 96.514,54.864L90.441,54.864C90.392,49.522 85.954,45.188 80.5,45.188C75.048,45.188 70.615,49.522 70.565,54.864L64.499,54.864C64.548,46.23 71.703,39.222 80.5,39.222Z" fill="#AD343E"/>
<path d="M79.348,85.828C79.78,85.828 80.217,85.727 80.62,85.514C83.918,83.779 86.813,81.389 89.12,78.496C91.426,75.602 93.094,72.269 94.017,68.708C94.105,68.37 94.125,68.018 94.074,67.672C94.024,67.327 93.904,66.994 93.723,66.694C93.542,66.394 93.301,66.132 93.017,65.923C92.732,65.714 92.408,65.563 92.063,65.477C91.719,65.391 91.36,65.373 91.009,65.424C90.657,65.475 90.319,65.593 90.014,65.773C89.709,65.952 89.443,66.189 89.232,66.469C89.02,66.75 88.867,67.068 88.781,67.407C88.044,70.253 86.712,72.918 84.869,75.23C83.026,77.543 80.713,79.453 78.077,80.839C77.545,81.117 77.124,81.562 76.879,82.102C76.635,82.642 76.581,83.248 76.727,83.822C76.874,84.395 77.211,84.904 77.686,85.268C78.161,85.632 78.746,85.829 79.348,85.828Z" fill="#474747"/>
<path d="M72.812,90.013C74.58,90.013 76.014,88.605 76.014,86.867C76.014,85.13 74.58,83.722 72.812,83.722C71.043,83.722 69.609,85.13 69.609,86.867C69.609,88.605 71.043,90.013 72.812,90.013Z" fill="#474747"/>
</svg>
