<svg width="26" height="26" viewBox="0 0 26 26" fill="none" xmlns="http://www.w3.org/2000/svg" xmlns:xlink="http://www.w3.org/1999/xlink">
<path d="M13.412,0.032C6.443,0.032 0.836,5.639 0.836,12.608C0.836,18.163 4.452,22.879 9.43,24.556C10.058,24.66 10.268,24.294 10.268,23.927C10.268,23.612 10.268,22.826 10.268,21.778C6.757,22.564 6.024,20.102 6.024,20.102C5.447,18.634 4.609,18.268 4.609,18.268C3.456,17.482 4.714,17.482 4.714,17.482C5.971,17.586 6.652,18.792 6.652,18.792C7.753,20.73 9.587,20.154 10.32,19.84C10.425,19.001 10.74,18.477 11.106,18.163C8.329,17.848 5.395,16.748 5.395,11.927C5.395,10.565 5.866,9.412 6.705,8.574C6.6,8.259 6.128,7.001 6.81,5.22C6.81,5.22 7.858,4.905 10.268,6.53C11.264,6.268 12.364,6.111 13.412,6.111C14.46,6.111 15.56,6.268 16.556,6.53C18.966,4.905 20.015,5.22 20.015,5.22C20.696,6.949 20.277,8.207 20.119,8.574C20.905,9.464 21.429,10.565 21.429,11.927C21.429,16.748 18.495,17.796 15.665,18.11C16.137,18.477 16.504,19.263 16.504,20.416C16.504,22.093 16.504,23.455 16.504,23.874C16.504,24.189 16.713,24.608 17.394,24.503C22.373,22.879 25.988,18.163 25.988,12.608C25.988,5.639 20.381,0.032 13.412,0.032Z" clip-rule="evenodd" fill-rule="evenodd" fill="#FFFFFF"/>
</svg>
