<svg width="30" height="24" viewBox="0 0 30 24" fill="none" xmlns="http://www.w3.org/2000/svg" xmlns:xlink="http://www.w3.org/1999/xlink">
<path d="M28.497,3.467C27.45,3.932 26.344,4.223 25.18,4.398C26.344,3.699 27.275,2.594 27.683,1.255C26.577,1.895 25.355,2.361 24.016,2.652C22.969,1.546 21.456,0.848 19.826,0.848C16.683,0.848 14.123,3.408 14.123,6.551C14.123,7.017 14.181,7.424 14.297,7.831C9.583,7.599 5.335,5.329 2.483,1.837C2.017,2.71 1.726,3.641 1.726,4.689C1.726,6.667 2.716,8.413 4.287,9.461C3.356,9.403 2.483,9.17 1.668,8.763L1.668,8.821C1.668,11.614 3.647,13.942 6.266,14.466C5.8,14.582 5.276,14.64 4.753,14.64C4.404,14.64 3.996,14.582 3.647,14.524C4.404,16.794 6.499,18.482 9.001,18.482C7.022,19.995 4.578,20.926 1.901,20.926C1.435,20.926 0.97,20.926 0.563,20.868C3.123,22.497 6.091,23.428 9.35,23.428C19.884,23.428 25.646,14.699 25.646,7.133C25.646,6.9 25.646,6.609 25.646,6.376C26.751,5.62 27.741,4.63 28.497,3.467Z" fill="#FFFFFF"/>
</svg>
