<svg width="106" height="100" viewBox="0 0 106 100" fill="none" xmlns="http://www.w3.org/2000/svg" xmlns:xlink="http://www.w3.org/1999/xlink">
<path d="M26.283,87.7L26.283,94.743C26.283,96.138 26.837,97.475 27.822,98.46C28.808,99.446 30.145,100 31.539,100L73.592,100C74.986,100 76.323,99.446 77.309,98.46C78.295,97.475 78.849,96.138 78.849,94.743L78.849,87.7C86.839,83.086 93.475,76.451 98.089,68.46C102.702,60.469 105.131,51.405 105.131,42.178C105.131,40.784 104.578,39.447 103.592,38.461C102.606,37.475 101.269,36.921 99.875,36.921C99.779,33.703 98.858,30.563 97.201,27.802C95.545,25.041 93.208,22.751 90.413,21.151C89.743,16.573 87.445,12.389 83.94,9.367C80.436,6.345 75.959,4.688 71.332,4.698C69.557,4.695 67.79,4.925 66.075,5.382C62.457,1.927 57.647,0 52.645,0C47.642,0 42.832,1.927 39.214,5.382C37.499,4.925 35.732,4.695 33.957,4.698C29.312,4.662 24.81,6.308 21.283,9.332C17.757,12.356 15.444,16.555 14.771,21.151C11.967,22.744 9.619,25.031 7.953,27.793C6.287,30.554 5.358,33.698 5.257,36.921C3.862,36.921 2.525,37.475 1.54,38.461C0.554,39.447 0,40.784 0,42.178C0,51.405 2.429,60.469 7.043,68.46C11.656,76.451 18.292,83.086 26.283,87.7ZM21.605,29.877L25.967,28.511L25.126,23.78C25.14,22.648 25.377,21.529 25.823,20.489C26.269,19.448 26.915,18.505 27.726,17.715C28.536,16.924 29.494,16.3 30.545,15.88C31.596,15.459 32.72,15.25 33.852,15.264C35.37,15.255 36.868,15.616 38.215,16.315L42.473,18.681L45.101,14.633C45.923,13.408 47.034,12.404 48.336,11.71C49.638,11.016 51.09,10.653 52.566,10.653C54.041,10.653 55.494,11.016 56.795,11.71C58.097,12.404 59.208,13.408 60.03,14.633L62.658,18.681L66.916,16.315C68.264,15.616 69.761,15.255 71.279,15.264C73.553,15.235 75.747,16.101 77.388,17.674C79.03,19.247 79.989,21.402 80.058,23.675L79.217,28.143L83.527,29.615C85.117,30.112 86.522,31.074 87.562,32.376C88.601,33.677 89.228,35.26 89.362,36.921L15.77,36.921C15.903,35.26 16.53,33.677 17.57,32.376C18.609,31.074 20.014,30.112 21.605,29.615L21.605,29.877ZM94.303,47.434C93.426,54.316 90.86,60.874 86.833,66.524C82.807,72.174 77.446,76.74 71.227,79.815C70.352,80.256 69.617,80.932 69.107,81.768C68.596,82.604 68.329,83.566 68.335,84.546L68.335,89.487L36.796,89.487L36.796,84.546C36.803,83.566 36.536,82.604 36.025,81.768C35.514,80.932 34.78,80.256 33.905,79.815C27.686,76.74 22.324,72.174 18.298,66.524C14.272,60.874 11.706,54.316 10.829,47.434L94.303,47.434Z" fill="#474747"/>
</svg>
