<svg width="144" height="50" viewBox="0 0 144 50" fill="none" xmlns="http://www.w3.org/2000/svg" xmlns:xlink="http://www.w3.org/1999/xlink">
<path d="M0.617,-0.543L34.419,-0.543L34.419,7.728L9.748,7.728L9.748,19.472L33.733,19.472L33.733,27.462L9.748,27.462L9.748,39.405L34.419,39.405L34.419,47.675L0.617,47.675L0.617,-0.543ZM127.771,48.544C138.134,48.544 143.973,43.581 143.973,36.766C143.973,31.911 140.516,28.289 133.279,26.717L125.629,25.154C121.187,24.327 119.79,23.5 119.79,21.846C119.79,19.704 121.932,18.389 125.877,18.389C130.153,18.389 133.32,19.538 134.148,23.492L143.113,23.492C142.625,16.048 137.274,11.135 126.423,11.135C117.044,11.135 110.46,15.006 110.46,22.508C110.46,27.693 114.083,31.068 121.899,32.714L130.45,34.69C133.825,35.352 134.726,36.262 134.726,37.659C134.726,39.884 132.179,41.282 128.06,41.282C122.883,41.282 119.922,40.132 118.772,36.179L109.757,36.179C111.072,43.606 116.58,48.544 127.771,48.544ZM107.152,47.642L97.45,47.642C91.363,47.642 87.989,43.854 87.989,39.074L87.989,20.134L81.165,20.134L81.165,12.062L88.022,12.062L88.022,1.93L97.037,1.93L97.037,12.062L107.152,12.062L107.152,20.134L97.037,20.134L97.037,36.766C97.037,38.66 98.352,39.57 100.411,39.57L107.152,39.57L107.152,47.642ZM68.279,12.078L68.279,15.287C65.105,12.604 61.08,11.138 56.924,11.152C54.435,11.099 51.962,11.544 49.648,12.46C47.334,13.376 45.226,14.745 43.447,16.487C41.669,18.228 40.256,20.306 39.292,22.601C38.327,24.895 37.83,27.359 37.83,29.848C37.83,32.337 38.327,34.8 39.292,37.095C40.256,39.389 41.669,41.468 43.447,43.209C45.226,44.95 47.334,46.319 49.648,47.235C51.962,48.151 54.435,48.596 56.924,48.544C61.081,48.562 65.108,47.095 68.279,44.408L68.279,47.626L77.27,47.626L77.27,12.062L68.279,12.078ZM57.668,40.736C55.512,40.761 53.396,40.144 51.591,38.963C49.786,37.783 48.373,36.093 47.531,34.107C46.689,32.122 46.456,29.93 46.863,27.812C47.269,25.694 48.296,23.745 49.812,22.212C51.329,20.679 53.268,19.631 55.381,19.202C57.495,18.773 59.688,18.982 61.683,19.803C63.677,20.624 65.382,22.019 66.582,23.811C67.782,25.603 68.422,27.712 68.42,29.868C68.433,31.29 68.164,32.7 67.629,34.017C67.093,35.334 66.302,36.532 65.3,37.541C64.299,38.551 63.107,39.351 61.794,39.897C60.481,40.442 59.073,40.722 57.652,40.72L57.668,40.736Z" fill="#05C167"/>
</svg>
