<svg width="104" height="40" viewBox="0 0 104 40" fill="none" xmlns="http://www.w3.org/2000/svg" xmlns:xlink="http://www.w3.org/1999/xlink">
<path d="M4.095,2.446L4.095,39.458L0.969,39.458L0.969,2.446L4.095,2.446ZM21.331,19.477L21.331,22.172L3.053,22.172L3.053,19.477L21.331,19.477ZM23.898,2.446L23.898,5.14L3.053,5.14L3.053,2.446L23.898,2.446Z" fill="#2C2F24"/>
<path d="M25.411,26.138L25.411,25.299C25.411,23.299 25.699,21.452 26.276,19.757C26.852,18.062 27.674,16.596 28.741,15.359C29.826,14.122 31.122,13.165 32.631,12.487C34.139,11.792 35.817,11.445 37.664,11.445C39.528,11.445 41.214,11.792 42.723,12.487C44.231,13.165 45.527,14.122 46.612,15.359C47.697,16.596 48.527,18.062 49.103,19.757C49.679,21.452 49.967,23.299 49.967,25.299L49.967,26.138C49.967,28.137 49.679,29.985 49.103,31.679C48.527,33.357 47.697,34.815 46.612,36.052C45.544,37.289 44.256,38.255 42.748,38.95C41.24,39.627 39.562,39.966 37.715,39.966C35.851,39.966 34.164,39.627 32.656,38.95C31.148,38.255 29.851,37.289 28.767,36.052C27.682,34.815 26.852,33.357 26.276,31.679C25.699,29.985 25.411,28.137 25.411,26.138ZM28.436,25.299L28.436,26.138C28.436,27.646 28.64,29.078 29.046,30.434C29.453,31.773 30.046,32.967 30.826,34.018C31.605,35.052 32.571,35.865 33.724,36.458C34.876,37.052 36.206,37.348 37.715,37.348C39.206,37.348 40.519,37.052 41.655,36.458C42.807,35.865 43.773,35.052 44.553,34.018C45.332,32.967 45.917,31.773 46.307,30.434C46.714,29.078 46.917,27.646 46.917,26.138L46.917,25.299C46.917,23.807 46.714,22.392 46.307,21.054C45.917,19.715 45.324,18.52 44.527,17.469C43.748,16.419 42.782,15.588 41.63,14.978C40.477,14.368 39.155,14.063 37.664,14.063C36.173,14.063 34.851,14.368 33.698,14.978C32.563,15.588 31.597,16.419 30.8,17.469C30.021,18.52 29.428,19.715 29.021,21.054C28.631,22.392 28.436,23.807 28.436,25.299Z" fill="#2C2F24"/>
<path d="M52.701,26.138L52.701,25.299C52.701,23.299 52.989,21.452 53.565,19.757C54.141,18.062 54.963,16.596 56.031,15.359C57.115,14.122 58.412,13.165 59.92,12.487C61.429,11.792 63.106,11.445 64.953,11.445C66.818,11.445 68.504,11.792 70.012,12.487C71.52,13.165 72.817,14.122 73.901,15.359C74.986,16.596 75.816,18.062 76.393,19.757C76.969,21.452 77.257,23.299 77.257,25.299L77.257,26.138C77.257,28.137 76.969,29.985 76.393,31.679C75.816,33.357 74.986,34.815 73.901,36.052C72.834,37.289 71.546,38.255 70.038,38.95C68.529,39.627 66.852,39.966 65.004,39.966C63.14,39.966 61.454,39.627 59.946,38.95C58.437,38.255 57.141,37.289 56.056,36.052C54.972,34.815 54.141,33.357 53.565,31.679C52.989,29.985 52.701,28.137 52.701,26.138ZM55.726,25.299L55.726,26.138C55.726,27.646 55.929,29.078 56.336,30.434C56.743,31.773 57.336,32.967 58.115,34.018C58.895,35.052 59.861,35.865 61.013,36.458C62.166,37.052 63.496,37.348 65.004,37.348C66.496,37.348 67.809,37.052 68.944,36.458C70.097,35.865 71.063,35.052 71.842,34.018C72.622,32.967 73.207,31.773 73.596,30.434C74.003,29.078 74.207,27.646 74.207,26.138L74.207,25.299C74.207,23.807 74.003,22.392 73.596,21.054C73.207,19.715 72.614,18.52 71.817,17.469C71.037,16.419 70.071,15.588 68.919,14.978C67.767,14.368 66.445,14.063 64.953,14.063C63.462,14.063 62.14,14.368 60.988,14.978C59.852,15.588 58.886,16.419 58.09,17.469C57.31,18.52 56.717,19.715 56.311,21.054C55.921,22.392 55.726,23.807 55.726,25.299Z" fill="#2C2F24"/>
<path d="M99.539,34.12L99.539,0.412L102.589,0.412L102.589,39.458L99.742,39.458L99.539,34.12ZM80.448,25.985L80.448,25.451C80.448,23.316 80.694,21.393 81.185,19.681C81.677,17.952 82.38,16.478 83.295,15.258C84.227,14.021 85.346,13.08 86.651,12.436C87.955,11.775 89.43,11.445 91.074,11.445C92.684,11.445 94.107,11.707 95.344,12.233C96.581,12.758 97.641,13.512 98.522,14.495C99.42,15.478 100.14,16.647 100.683,18.003C101.242,19.359 101.649,20.867 101.903,22.528L101.903,29.315C101.699,30.874 101.327,32.306 100.784,33.611C100.242,34.899 99.522,36.026 98.624,36.992C97.725,37.941 96.641,38.678 95.37,39.204C94.116,39.712 92.667,39.966 91.023,39.966C89.396,39.966 87.93,39.627 86.625,38.95C85.32,38.272 84.21,37.314 83.295,36.077C82.38,34.823 81.677,33.34 81.185,31.629C80.694,29.917 80.448,28.036 80.448,25.985ZM83.498,25.451L83.498,25.985C83.498,27.595 83.659,29.086 83.981,30.459C84.303,31.832 84.795,33.027 85.456,34.043C86.117,35.06 86.956,35.857 87.972,36.433C88.989,37.009 90.192,37.297 91.582,37.297C93.328,37.297 94.794,36.967 95.98,36.306C97.166,35.628 98.115,34.738 98.827,33.637C99.539,32.518 100.056,31.298 100.378,29.976L100.378,22.07C100.174,21.172 99.878,20.257 99.488,19.325C99.098,18.393 98.564,17.537 97.886,16.757C97.225,15.961 96.378,15.325 95.344,14.851C94.328,14.359 93.09,14.114 91.633,14.114C90.226,14.114 89.015,14.402 87.998,14.978C86.981,15.554 86.134,16.359 85.456,17.393C84.795,18.41 84.303,19.605 83.981,20.977C83.659,22.35 83.498,23.841 83.498,25.451Z" fill="#2C2F24"/>
</svg>
