<svg width="86" height="86" viewBox="0 0 86 86" fill="none" xmlns="http://www.w3.org/2000/svg" xmlns:xlink="http://www.w3.org/1999/xlink">
<path d="M14,38L14,35.5C12.619,35.5 11.5,36.619 11.5,38L14,38ZM70,38L72.5,38C72.5,36.619 71.381,35.5 70,35.5L70,38ZM70,70L70,72.5C71.381,72.5 72.5,71.381 72.5,70L70,70ZM14,70L11.5,70C11.5,71.381 12.619,72.5 14,72.5L14,70ZM14,40.5L70,40.5L70,35.5L14,35.5L14,40.5ZM67.5,38L67.5,70L72.5,70L72.5,38L67.5,38ZM70,67.5L14,67.5L14,72.5L70,72.5L70,67.5ZM16.5,70L16.5,38L11.5,38L11.5,70L16.5,70Z" fill="#AD343E"/>
<line x1="28" y1="47.5" x2="56" y2="47.5" stroke="#AD343E" stroke-width="2.5" stroke-miterlimit="3.999327" stroke-linecap="round" stroke-linejoin="round"/>
<path d="M52,18C54.209,18 56,16.209 56,14C56,11.791 54.209,10 52,10C49.791,10 48,11.791 48,14C48,16.209 49.791,18 52,18Z" fill="#474747"/>
<path d="M68,18C70.209,18 72,16.209 72,14C72,11.791 70.209,10 68,10C65.791,10 64,11.791 64,14C64,16.209 65.791,18 68,18Z" fill="#474747"/>
<path d="M10,4.5L74,4.5L74,-0.5L10,-0.5L10,4.5ZM74,4.5C77.038,4.5 79.5,6.962 79.5,10L84.5,10C84.5,4.201 79.799,-0.5 74,-0.5L74,4.5ZM79.5,10L79.5,74L84.5,74L84.5,10L79.5,10ZM79.5,74C79.5,77.038 77.038,79.5 74,79.5L74,84.5C79.799,84.5 84.5,79.799 84.5,74L79.5,74ZM74,79.5L10,79.5L10,84.5L74,84.5L74,79.5ZM10,79.5C6.962,79.5 4.5,77.038 4.5,74L-0.5,74C-0.5,79.799 4.201,84.5 10,84.5L10,79.5ZM4.5,74L4.5,10L-0.5,10L-0.5,74L4.5,74ZM4.5,10C4.5,6.962 6.962,4.5 10,4.5L10,-0.5C4.201,-0.5 -0.5,4.201 -0.5,10L4.5,10Z" fill="#474747"/>
<line x1="14" y1="11.5" x2="26" y2="11.5" stroke="#474747" stroke-width="2.5" stroke-miterlimit="3.999327" stroke-linecap="round" stroke-linejoin="round"/>
<line x1="2" y1="23.5" x2="82" y2="23.5" stroke="#474747" stroke-width="2.5" stroke-miterlimit="3.999327" stroke-linecap="round" stroke-linejoin="round"/>
</svg>
