<svg width="28" height="28" viewBox="0 0 28 28" fill="none" xmlns="http://www.w3.org/2000/svg" xmlns:xlink="http://www.w3.org/1999/xlink">
<path d="M13.859,2.401C17.369,2.401 17.785,2.414 19.171,2.478C20.005,2.488 20.831,2.641 21.613,2.93C22.18,3.149 22.695,3.484 23.125,3.914C23.555,4.344 23.89,4.859 24.109,5.426C24.398,6.208 24.551,7.034 24.561,7.867C24.624,9.254 24.638,9.67 24.638,13.18C24.638,16.69 24.624,17.106 24.561,18.493C24.551,19.327 24.398,20.152 24.109,20.935C23.89,21.502 23.555,22.017 23.125,22.446C22.695,22.876 22.18,23.211 21.613,23.43C20.831,23.719 20.005,23.872 19.171,23.883C17.785,23.945 17.37,23.959 13.859,23.959C10.348,23.959 9.932,23.946 8.546,23.883C7.712,23.872 6.886,23.719 6.104,23.43C5.537,23.211 5.022,22.876 4.592,22.446C4.162,22.017 3.827,21.502 3.609,20.935C3.319,20.152 3.166,19.327 3.156,18.493C3.093,17.106 3.08,16.69 3.08,13.18C3.08,9.67 3.093,9.254 3.156,7.867C3.166,7.034 3.319,6.208 3.609,5.426C3.827,4.859 4.162,4.344 4.592,3.914C5.022,3.484 5.537,3.149 6.104,2.93C6.886,2.641 7.712,2.488 8.546,2.478C9.933,2.415 10.348,2.401 13.859,2.401L13.859,2.401ZM13.859,0.032C10.29,0.032 9.841,0.047 8.438,0.111C7.347,0.133 6.267,0.339 5.245,0.722C4.368,1.052 3.574,1.57 2.918,2.239C2.249,2.895 1.731,3.69 1.4,4.567C1.017,5.59 0.811,6.669 0.789,7.76C0.726,9.161 0.711,9.611 0.711,13.18C0.711,16.748 0.726,17.198 0.79,18.6C0.812,19.691 1.018,20.771 1.401,21.793C1.731,22.67 2.249,23.465 2.918,24.121C3.575,24.79 4.369,25.308 5.246,25.638C6.269,26.021 7.348,26.227 8.439,26.249C9.842,26.312 10.289,26.328 13.86,26.328C17.43,26.328 17.878,26.313 19.28,26.249C20.371,26.227 21.451,26.021 22.473,25.638C23.346,25.3 24.139,24.783 24.801,24.12C25.463,23.458 25.979,22.665 26.317,21.792C26.7,20.769 26.907,19.69 26.928,18.599C26.991,17.198 27.006,16.748 27.006,13.18C27.006,9.611 26.991,9.161 26.927,7.759C26.905,6.668 26.699,5.588 26.316,4.566C25.986,3.689 25.468,2.894 24.799,2.238C24.143,1.569 23.348,1.051 22.471,0.721C21.449,0.338 20.369,0.132 19.278,0.11C17.877,0.047 17.427,0.032 13.859,0.032Z" fill="#FFFFFF"/>
<path d="M13.855,6.436C12.52,6.436 11.215,6.832 10.104,7.573C8.994,8.315 8.129,9.37 7.618,10.603C7.107,11.837 6.973,13.194 7.233,14.504C7.494,15.814 8.137,17.017 9.081,17.961C10.025,18.905 11.228,19.548 12.538,19.809C13.848,20.069 15.205,19.936 16.439,19.425C17.673,18.914 18.727,18.048 19.469,16.938C20.211,15.828 20.607,14.522 20.607,13.187C20.607,11.396 19.895,9.679 18.629,8.413C17.363,7.147 15.646,6.436 13.855,6.436ZM13.855,17.569C12.988,17.569 12.141,17.312 11.42,16.831C10.7,16.349 10.138,15.665 9.806,14.864C9.475,14.063 9.388,13.182 9.557,12.332C9.726,11.482 10.143,10.701 10.756,10.088C11.369,9.475 12.15,9.058 13,8.889C13.85,8.72 14.731,8.806 15.532,9.138C16.333,9.47 17.018,10.032 17.499,10.752C17.981,11.473 18.238,12.32 18.238,13.187C18.238,14.349 17.776,15.464 16.954,16.286C16.132,17.108 15.017,17.569 13.855,17.569L13.855,17.569Z" fill="#FFFFFF"/>
<path d="M20.896,7.742C21.768,7.742 22.474,7.036 22.474,6.165C22.474,5.293 21.768,4.587 20.896,4.587C20.025,4.587 19.319,5.293 19.319,6.165C19.319,7.036 20.025,7.742 20.896,7.742Z" fill="#FFFFFF"/>
</svg>
