<svg width="102" height="100" viewBox="0 0 102 100" fill="none" xmlns="http://www.w3.org/2000/svg" xmlns:xlink="http://www.w3.org/1999/xlink">
<path d="M55.943,14.754L55.859,14.496L56.285,15.046C56.651,15.455 56.953,15.365 57.211,15.046C57.211,15.046 59.468,12.453 57.7,9.435C56.728,7.436 52.891,2.68 50.872,1.19C47.222,-1.127 44.868,0.654 44.868,0.654C44.576,0.872 44.361,1.19 44.576,1.485L45.146,2.072C38.26,3.451 37.247,8.814 36.798,11.189L36.724,11.581L35.799,18.021C35.503,20.268 36.724,21.486 38.871,21.486L45.874,21.486C48.316,21.519 53.401,21.583 55.943,14.754Z" fill="#474747"/>
<path d="M33.41,11.105L32.662,16.31L8.955,38.239C8.056,38.991 7.383,39.978 7.013,41.09C6.871,41.505 6.768,41.933 6.708,42.368L6.708,44.079C7.617,44.152 8.667,44.079 9.811,43.824L84.821,22.304C85.07,22.233 85.333,22.22 85.588,22.267C85.844,22.314 86.085,22.42 86.292,22.576C86.499,22.732 86.668,22.934 86.784,23.166C86.9,23.398 86.96,23.654 86.961,23.914L86.961,40.168C86.962,40.528 86.848,40.879 86.634,41.168C86.42,41.458 86.118,41.67 85.773,41.774C71.418,46.101 14.349,63.297 12.947,63.676C11.36,64.113 7.849,64.77 6.708,64.622L6.708,75.137C7.731,75.278 8.794,75.238 9.811,74.966L84.818,53.249C85.067,53.176 85.33,53.163 85.586,53.21C85.842,53.257 86.083,53.363 86.291,53.519C86.499,53.675 86.668,53.877 86.784,54.11C86.9,54.342 86.961,54.599 86.961,54.859L86.961,70.462L89.49,69.737L89.513,69.731L89.654,69.684C90.475,69.413 91.266,69.057 92.012,68.62C93.531,67.715 93.669,67.101 93.669,67.024L93.669,23.341C93.669,22.609 93.367,21.315 92.572,20.064C91.828,18.89 90.771,17.941 89.386,17.481L61.691,10.988C61.569,9.883 61.219,8.815 60.665,7.852C59.984,6.507 58.642,4.665 57.348,3.082L91.046,10.981C91.125,11 91.203,11.023 91.281,11.048C94.517,12.054 96.795,14.201 98.234,16.468C99.642,18.682 100.377,21.207 100.377,23.341L100.377,67.024C100.377,70.982 97.214,73.329 95.436,74.386C94.192,75.119 92.867,75.708 91.489,76.14L91.402,76.167L91.371,76.174L91.361,76.177C91.361,76.177 90.872,76.318 91.355,76.177L9.489,99.676C9.441,99.689 9.393,99.701 9.344,99.713C6.953,100.283 4.236,100.132 2.234,98.086C0.439,96.254 0,93.642 0,91.311L0,42.224L0.003,42.043L0.003,41.992L0.013,41.919C0.033,41.619 0.07,41.322 0.124,41.026C0.218,40.483 0.382,39.749 0.671,38.907C1.408,36.728 2.71,34.784 4.444,33.272L35.959,4.125C35.887,4.228 35.816,4.332 35.748,4.437C34.218,6.805 33.752,9.277 33.524,10.488L33.51,10.568C33.479,10.748 33.445,10.926 33.41,11.105Z" fill="#474747"/>
</svg>
