<svg width="34" height="34" viewBox="0 0 34 34" fill="none" xmlns="http://www.w3.org/2000/svg" xmlns:xlink="http://www.w3.org/1999/xlink">
<path d="M16.998,3.128C21.52,3.128 22.055,3.145 23.842,3.226C24.916,3.239 25.979,3.437 26.987,3.809C27.717,4.091 28.381,4.523 28.934,5.076C29.488,5.63 29.919,6.293 30.201,7.024C30.574,8.031 30.771,9.095 30.784,10.169C30.865,11.955 30.883,12.491 30.883,17.012C30.883,21.534 30.866,22.07 30.784,23.856C30.771,24.93 30.574,25.994 30.201,27.001C29.919,27.732 29.488,28.395 28.934,28.949C28.381,29.502 27.717,29.934 26.987,30.216C25.979,30.588 24.916,30.786 23.842,30.799C22.056,30.879 21.52,30.897 16.998,30.897C12.475,30.897 11.94,30.88 10.154,30.799C9.08,30.786 8.017,30.588 7.009,30.216C6.279,29.934 5.615,29.502 5.062,28.949C4.508,28.395 4.076,27.732 3.795,27.001C3.422,25.994 3.225,24.93 3.212,23.856C3.131,22.07 3.113,21.534 3.113,17.012C3.113,12.491 3.13,11.955 3.212,10.169C3.225,9.095 3.422,8.031 3.795,7.024C4.076,6.293 4.508,5.63 5.062,5.076C5.615,4.523 6.279,4.091 7.009,3.809C8.017,3.437 9.08,3.239 10.154,3.226C11.941,3.146 12.476,3.128 16.998,3.128L16.998,3.128ZM16.998,0.076C12.401,0.076 11.822,0.096 10.016,0.178C8.61,0.206 7.219,0.472 5.903,0.965C4.773,1.39 3.75,2.057 2.905,2.919C2.043,3.764 1.375,4.788 0.95,5.918C0.457,7.235 0.19,8.625 0.163,10.031C0.082,11.836 0.063,12.415 0.063,17.012C0.063,21.608 0.082,22.187 0.164,23.994C0.192,25.4 0.458,26.79 0.951,28.107C1.377,29.237 2.043,30.26 2.905,31.106C3.751,31.968 4.774,32.635 5.904,33.06C7.221,33.553 8.612,33.819 10.017,33.847C11.824,33.928 12.4,33.949 17,33.949C21.599,33.949 22.175,33.929 23.982,33.847C25.387,33.819 26.778,33.553 28.095,33.06C29.22,32.624 30.241,31.958 31.093,31.105C31.946,30.252 32.611,29.23 33.046,28.105C33.539,26.789 33.806,25.398 33.833,23.992C33.914,22.187 33.934,21.608 33.934,17.012C33.934,12.415 33.914,11.836 33.832,10.029C33.804,8.624 33.538,7.233 33.045,5.916C32.619,4.786 31.953,3.763 31.091,2.917C30.245,2.055 29.221,1.389 28.092,0.963C26.775,0.47 25.384,0.204 23.979,0.176C22.174,0.096 21.595,0.076 16.998,0.076Z" fill="#FFFFFF"/>
<path d="M16.994,8.324C15.274,8.324 13.592,8.834 12.162,9.79C10.732,10.745 9.617,12.104 8.959,13.693C8.301,15.282 8.128,17.031 8.464,18.718C8.8,20.405 9.628,21.954 10.844,23.171C12.06,24.387 13.61,25.215 15.297,25.551C16.984,25.886 18.733,25.714 20.322,25.056C21.911,24.398 23.269,23.283 24.225,21.853C25.18,20.422 25.69,18.741 25.69,17.021C25.69,14.714 24.774,12.502 23.143,10.871C21.512,9.24 19.3,8.324 16.994,8.324ZM16.994,22.666C15.877,22.666 14.786,22.335 13.857,21.715C12.929,21.094 12.205,20.213 11.778,19.181C11.351,18.15 11.239,17.015 11.457,15.92C11.675,14.825 12.212,13.819 13.002,13.029C13.791,12.24 14.797,11.702 15.892,11.484C16.987,11.266 18.122,11.378 19.154,11.806C20.185,12.233 21.067,12.956 21.687,13.885C22.308,14.813 22.639,15.904 22.639,17.021C22.639,18.518 22.044,19.954 20.985,21.013C19.927,22.071 18.491,22.666 16.994,22.666L16.994,22.666Z" fill="#FFFFFF"/>
<path d="M26.064,10.008C27.186,10.008 28.096,9.098 28.096,7.976C28.096,6.853 27.186,5.943 26.064,5.943C24.941,5.943 24.031,6.853 24.031,7.976C24.031,9.098 24.941,10.008 26.064,10.008Z" fill="#FFFFFF"/>
</svg>
