<svg width="40" height="32" viewBox="0 0 40 32" fill="none" xmlns="http://www.w3.org/2000/svg" xmlns:xlink="http://www.w3.org/1999/xlink">
<path d="M3.109,6.336C2.19,5.723 0.949,5.972 0.336,6.891C-0.277,7.81 -0.028,9.051 0.891,9.664L3.109,6.336ZM17.781,18.521L16.672,20.185L16.672,20.185L17.781,18.521ZM22.219,18.521L21.109,16.857L21.109,16.857L22.219,18.521ZM39.109,9.664C40.028,9.051 40.277,7.81 39.664,6.891C39.051,5.972 37.81,5.723 36.891,6.336L39.109,9.664ZM6,4L34,4L34,0L6,0L6,4ZM36,6L36,26L40,26L40,6L36,6ZM34,28L6,28L6,32L34,32L34,28ZM4,26L4,6L0,6L0,26L4,26ZM6,28C4.895,28 4,27.105 4,26L0,26C0,29.314 2.686,32 6,32L6,28ZM36,26C36,27.105 35.105,28 34,28L34,32C37.314,32 40,29.314 40,26L36,26ZM34,4C35.105,4 36,4.895 36,6L40,6C40,2.686 37.314,0 34,0L34,4ZM6,0C2.686,0 0,2.686 0,6L4,6C4,4.895 4.895,4 6,4L6,0ZM0.891,9.664L16.672,20.185L18.891,16.857L3.109,6.336L0.891,9.664ZM23.328,20.185L39.109,9.664L36.891,6.336L21.109,16.857L23.328,20.185ZM16.672,20.185C18.687,21.529 21.313,21.529 23.328,20.185L21.109,16.857C20.438,17.305 19.562,17.305 18.891,16.857L16.672,20.185Z" fill="#FFFFFF"/>
</svg>
