<svg width="26" height="26" viewBox="0 0 26 26" fill="none" xmlns="http://www.w3.org/2000/svg" xmlns:xlink="http://www.w3.org/1999/xlink">
<path d="M1.768,0.268C0.939,0.268 0.268,0.939 0.268,1.768C0.268,2.596 0.939,3.268 1.768,3.268L1.768,0.268ZM4.279,1.768L5.75,1.474C5.61,0.772 4.994,0.268 4.279,0.268L4.279,1.768ZM19.349,14.326L19.349,15.826C19.917,15.826 20.437,15.505 20.691,14.997L19.349,14.326ZM24.373,4.279L25.714,4.95C25.947,4.485 25.922,3.933 25.649,3.491C25.375,3.049 24.892,2.779 24.373,2.779L24.373,4.279ZM3.911,17.206L2.851,16.145L2.851,16.145L3.911,17.206ZM1.768,3.268L4.279,3.268L4.279,0.268L1.768,0.268L1.768,3.268ZM6.791,15.826L19.349,15.826L19.349,12.826L6.791,12.826L6.791,15.826ZM20.691,14.997L25.714,4.95L23.031,3.609L18.008,13.655L20.691,14.997ZM2.808,2.062L3.311,4.574L6.252,3.985L5.75,1.474L2.808,2.062ZM3.311,4.574L5.32,14.62L8.262,14.032L6.252,3.985L3.311,4.574ZM4.782,5.779L24.373,5.779L24.373,2.779L4.782,2.779L4.782,5.779ZM20.361,21.861C20.361,22.42 19.908,22.873 19.349,22.873L19.349,25.873C21.565,25.873 23.361,24.077 23.361,21.861L20.361,21.861ZM19.349,22.873C18.791,22.873 18.338,22.42 18.338,21.861L15.338,21.861C15.338,24.077 17.134,25.873 19.349,25.873L19.349,22.873ZM18.338,21.861C18.338,21.302 18.791,20.849 19.349,20.849L19.349,17.849C17.134,17.849 15.338,19.645 15.338,21.861L18.338,21.861ZM19.349,20.849C19.908,20.849 20.361,21.302 20.361,21.861L23.361,21.861C23.361,19.645 21.565,17.849 19.349,17.849L19.349,20.849ZM7.803,21.861C7.803,22.42 7.35,22.873 6.791,22.873L6.791,25.873C9.006,25.873 10.803,24.077 10.803,21.861L7.803,21.861ZM6.791,22.873C6.232,22.873 5.779,22.42 5.779,21.861L2.779,21.861C2.779,24.077 4.575,25.873 6.791,25.873L6.791,22.873ZM5.779,21.861C5.779,21.302 6.232,20.849 6.791,20.849L6.791,17.849C4.575,17.849 2.779,19.645 2.779,21.861L5.779,21.861ZM6.791,20.849C7.35,20.849 7.803,21.302 7.803,21.861L10.803,21.861C10.803,19.645 9.006,17.849 6.791,17.849L6.791,20.849ZM4.799,20.849L19.349,20.849L19.349,17.849L4.799,17.849L4.799,20.849ZM4.972,18.266L7.852,15.387L5.73,13.265L2.851,16.145L4.972,18.266ZM4.799,17.849C4.833,17.849 4.889,17.863 4.941,17.9C4.987,17.932 5.012,17.969 5.025,18C5.038,18.031 5.047,18.075 5.037,18.13C5.026,18.193 4.996,18.243 4.972,18.266L2.851,16.145C1.115,17.881 2.344,20.849 4.799,20.849L4.799,17.849Z" fill="#FFFFFF"/>
</svg>
