<svg width="22" height="26" viewBox="0 0 22 26" fill="none" xmlns="http://www.w3.org/2000/svg" xmlns:xlink="http://www.w3.org/1999/xlink">
<path d="M19.861,24.373L19.117,25.675C19.581,25.94 20.151,25.939 20.614,25.67C21.076,25.402 21.361,24.908 21.361,24.373L19.861,24.373ZM2.279,24.373L0.779,24.373C0.779,24.908 1.064,25.402 1.526,25.67C1.989,25.939 2.559,25.94 3.024,25.675L2.279,24.373ZM11.07,24.373L10.326,25.675C10.787,25.939 11.353,25.939 11.814,25.675L11.07,24.373ZM6.675,21.861L7.419,20.559C6.958,20.295 6.392,20.295 5.93,20.559L6.675,21.861ZM15.466,21.861L16.21,20.559C15.749,20.295 15.182,20.295 14.721,20.559L15.466,21.861ZM6.242,14.521C5.656,15.107 5.656,16.057 6.242,16.643C6.828,17.228 7.777,17.228 8.363,16.643L6.242,14.521ZM15.898,9.108C16.484,8.522 16.484,7.572 15.898,6.986C15.312,6.401 14.363,6.401 13.777,6.986L15.898,9.108ZM7.931,7.175C7.102,7.175 6.431,7.846 6.431,8.675C6.431,9.503 7.102,10.175 7.931,10.175L7.931,7.175ZM7.943,10.175C8.772,10.175 9.443,9.503 9.443,8.675C9.443,7.846 8.772,7.175 7.943,7.175L7.943,10.175ZM14.21,13.454C13.381,13.454 12.71,14.126 12.71,14.954C12.71,15.783 13.381,16.454 14.21,16.454L14.21,13.454ZM14.222,16.454C15.051,16.454 15.722,15.783 15.722,14.954C15.722,14.126 15.051,13.454 14.222,13.454L14.222,16.454ZM4.791,3.268L17.349,3.268L17.349,0.268L4.791,0.268L4.791,3.268ZM18.361,4.279L18.361,24.373L21.361,24.373L21.361,4.279L18.361,4.279ZM3.779,24.373L3.779,4.279L0.779,4.279L0.779,24.373L3.779,24.373ZM11.814,23.07L7.419,20.559L5.93,23.163L10.326,25.675L11.814,23.07ZM5.93,20.559L1.535,23.07L3.024,25.675L7.419,23.163L5.93,20.559ZM20.605,23.07L16.21,20.559L14.721,23.163L19.117,25.675L20.605,23.07ZM14.721,20.559L10.326,23.07L11.814,25.675L16.21,23.163L14.721,20.559ZM17.349,3.268C17.908,3.268 18.361,3.721 18.361,4.279L21.361,4.279C21.361,2.064 19.565,0.268 17.349,0.268L17.349,3.268ZM4.791,0.268C2.575,0.268 0.779,2.064 0.779,4.279L3.779,4.279C3.779,3.721 4.232,3.268 4.791,3.268L4.791,0.268ZM8.363,16.643L15.898,9.108L13.777,6.986L6.242,14.521L8.363,16.643ZM7.058,8.675C7.058,8.193 7.449,7.803 7.931,7.803L7.931,10.803C9.106,10.803 10.058,9.85 10.058,8.675L7.058,8.675ZM7.931,7.803C8.412,7.803 8.803,8.193 8.803,8.675L5.803,8.675C5.803,9.85 6.755,10.803 7.931,10.803L7.931,7.803ZM8.803,8.675C8.803,9.157 8.412,9.547 7.931,9.547L7.931,6.547C6.755,6.547 5.803,7.5 5.803,8.675L8.803,8.675ZM7.931,9.547C7.449,9.547 7.058,9.157 7.058,8.675L10.058,8.675C10.058,7.5 9.106,6.547 7.931,6.547L7.931,9.547ZM7.931,10.175L7.943,10.175L7.943,7.175L7.931,7.175L7.931,10.175ZM14.21,16.454L14.222,16.454L14.222,13.454L14.21,13.454L14.21,16.454ZM13.338,14.954C13.338,14.472 13.728,14.082 14.21,14.082L14.21,17.082C15.385,17.082 16.338,16.129 16.338,14.954L13.338,14.954ZM14.21,14.082C14.691,14.082 15.082,14.472 15.082,14.954L12.082,14.954C12.082,16.129 13.034,17.082 14.21,17.082L14.21,14.082ZM15.082,14.954C15.082,15.436 14.691,15.826 14.21,15.826L14.21,12.826C13.034,12.826 12.082,13.779 12.082,14.954L15.082,14.954ZM14.21,15.826C13.728,15.826 13.338,15.436 13.338,14.954L16.338,14.954C16.338,13.779 15.385,12.826 14.21,12.826L14.21,15.826Z" fill="#FFFFFF"/>
</svg>
