<svg width="22" height="14" viewBox="0 0 22 14" fill="none" xmlns="http://www.w3.org/2000/svg" xmlns:xlink="http://www.w3.org/1999/xlink">
<path d="M20.394,3.061C20.98,2.475 20.98,1.525 20.394,0.939C19.808,0.354 18.858,0.354 18.273,0.939L20.394,3.061ZM10,11.333L8.939,12.394C9.525,12.98 10.475,12.98 11.061,12.394L10,11.333ZM1.727,0.939C1.142,0.354 0.192,0.354 -0.394,0.939C-0.98,1.525 -0.98,2.475 -0.394,3.061L1.727,0.939ZM18.273,0.939L8.939,10.273L11.061,12.394L20.394,3.061L18.273,0.939ZM11.061,10.273L1.727,0.939L-0.394,3.061L8.939,12.394L11.061,10.273Z" transform="rotate(0 10 6.667)" fill="#2C2F24"/>
</svg>
