<svg width="112" height="110" viewBox="0 0 112 110" fill="none" xmlns="http://www.w3.org/2000/svg" xmlns:xlink="http://www.w3.org/1999/xlink">
<path d="M95.339,1.608C94.722,1.252 93.986,1.15 93.293,1.325C92.6,1.501 92.006,1.939 91.641,2.543L72.298,34.726C72.199,34.893 72.119,35.07 72.059,35.254C69.895,36.042 67.875,37.169 66.077,38.592C60.217,28.813 49.478,22.655 37.746,22.655C19.644,22.655 4.919,37.097 4.869,54.863L0.602,54.863L0.983,57.848C3.204,75.194 14.096,90.345 29.757,98.323L29.757,108.565L70.169,108.565C75.291,108.565 79.458,104.468 79.458,99.436L79.458,98.324C95.125,90.343 106.012,75.192 108.237,57.848L108.619,54.861L100.913,54.861C100.877,45.793 94.956,38.083 86.72,35.172L110.853,12.363C111.926,11.349 111.961,9.669 110.924,8.615C110.679,8.364 110.385,8.163 110.061,8.024C109.736,7.884 109.386,7.809 109.032,7.802C108.678,7.795 108.326,7.857 107.996,7.984C107.666,8.111 107.364,8.3 107.109,8.541L80.226,33.952C79.985,33.943 79.745,33.916 79.5,33.916C79.345,33.916 79.196,33.938 79.044,33.94L96.292,5.24C96.472,4.94 96.59,4.608 96.64,4.263C96.69,3.918 96.67,3.567 96.581,3.23C96.493,2.893 96.338,2.576 96.125,2.297C95.911,2.019 95.644,1.785 95.339,1.608ZM37.745,27.96C48.08,27.96 57.5,33.674 62.186,42.627C60.478,44.934 59.266,47.56 58.626,50.342C56.479,40.953 47.94,33.914 37.745,33.914C25.97,33.914 16.391,43.304 16.341,54.862L10.271,54.862C10.32,40.022 22.623,27.96 37.745,27.96ZM37.745,45.187C32.293,45.187 27.856,49.52 27.805,54.862L21.744,54.862C21.794,46.229 28.949,39.22 37.745,39.22C46.544,39.22 53.706,46.229 53.751,54.862L47.682,54.862C47.634,49.52 43.197,45.187 37.745,45.187ZM42.277,54.863L33.213,54.863C33.238,53.697 33.726,52.587 34.573,51.77C35.421,50.953 36.56,50.494 37.748,50.492C38.935,50.495 40.073,50.953 40.92,51.771C41.767,52.588 42.254,53.698 42.277,54.863ZM102.395,60.169C99.393,75.586 88.748,88.729 73.995,95.024L65.349,95.024L65.349,100.331L73.937,100.331C73.735,101.163 73.253,101.905 72.57,102.436C71.887,102.968 71.041,103.258 70.17,103.26L35.161,103.26L35.161,100.331L45.289,100.331L45.289,95.024L35.226,95.024C20.473,88.732 9.826,75.586 6.822,60.169L102.395,60.169ZM74.97,54.863C74.994,53.698 75.481,52.588 76.328,51.771C77.175,50.954 78.313,50.495 79.5,50.492C80.688,50.493 81.829,50.952 82.677,51.769C83.525,52.586 84.013,53.697 84.037,54.863L74.97,54.863ZM79.5,39.222C88.303,39.222 95.467,46.23 95.514,54.863L89.441,54.863C89.392,49.522 84.954,45.188 79.5,45.188C74.048,45.188 69.615,49.522 69.565,54.863L63.499,54.863C63.548,46.23 70.703,39.222 79.5,39.222Z" fill="#FFFFFF"/>
<path d="M78.348,85.828C78.78,85.828 79.217,85.727 79.62,85.514C82.918,83.779 85.813,81.389 88.12,78.496C90.426,75.602 92.094,72.269 93.016,68.708C93.105,68.37 93.124,68.018 93.074,67.672C93.024,67.327 92.904,66.994 92.723,66.694C92.541,66.394 92.301,66.132 92.017,65.923C91.732,65.714 91.408,65.563 91.063,65.477C90.719,65.391 90.36,65.373 90.009,65.424C89.657,65.475 89.319,65.593 89.014,65.773C88.709,65.952 88.443,66.189 88.231,66.469C88.02,66.75 87.867,67.068 87.781,67.407C87.044,70.253 85.712,72.918 83.869,75.23C82.026,77.543 79.713,79.453 77.077,80.839C76.545,81.117 76.124,81.562 75.879,82.102C75.634,82.642 75.581,83.248 75.727,83.822C75.873,84.395 76.211,84.904 76.686,85.268C77.161,85.632 77.746,85.829 78.348,85.828Z" fill="#FFFFFF"/>
<path d="M71.812,90.013C73.58,90.013 75.014,88.605 75.014,86.867C75.014,85.13 73.58,83.722 71.812,83.722C70.043,83.722 68.609,85.13 68.609,86.867C68.609,88.605 70.043,90.013 71.812,90.013Z" fill="#FFFFFF"/>
</svg>
