<svg width="112" height="110" viewBox="0 0 112 110" fill="none" xmlns="http://www.w3.org/2000/svg" xmlns:xlink="http://www.w3.org/1999/xlink">
<path d="M94.339,1.608C93.722,1.252 92.986,1.15 92.293,1.326C91.6,1.501 91.006,1.939 90.641,2.544L71.298,34.726C71.199,34.893 71.119,35.07 71.059,35.255C68.895,36.043 66.875,37.17 65.078,38.592C59.217,28.813 48.478,22.655 36.747,22.655C18.645,22.655 3.92,37.097 3.869,54.864L-0.398,54.864L-0.016,57.848C2.204,75.194 13.096,90.345 28.758,98.323L28.758,108.565L69.169,108.565C74.291,108.565 78.459,104.469 78.459,99.436L78.459,98.324C94.125,90.343 105.012,75.192 107.238,57.848L107.619,54.861L99.913,54.861C99.878,45.793 93.956,38.083 85.72,35.172L109.853,12.364C110.926,11.35 110.961,9.669 109.924,8.615C109.679,8.364 109.385,8.163 109.061,8.024C108.736,7.884 108.387,7.809 108.032,7.802C107.678,7.795 107.326,7.857 106.996,7.984C106.666,8.111 106.364,8.3 106.109,8.542L79.227,33.953C78.985,33.943 78.745,33.916 78.5,33.916C78.345,33.916 78.196,33.938 78.044,33.941L95.292,5.24C95.472,4.94 95.591,4.608 95.64,4.264C95.69,3.919 95.67,3.568 95.582,3.23C95.493,2.893 95.338,2.576 95.125,2.298C94.912,2.019 94.645,1.785 94.339,1.608ZM36.745,27.961C47.08,27.961 56.5,33.675 61.186,42.627C59.478,44.934 58.267,47.56 57.627,50.343C55.479,40.953 46.94,33.914 36.745,33.914C24.971,33.914 15.392,43.304 15.341,54.862L9.271,54.862C9.32,40.022 21.623,27.961 36.745,27.961ZM36.745,45.187C31.293,45.187 26.856,49.521 26.806,54.862L20.744,54.862C20.795,46.229 27.949,39.221 36.745,39.221C45.544,39.221 52.706,46.229 52.752,54.862L46.683,54.862C46.635,49.521 42.198,45.187 36.745,45.187ZM41.277,54.864L32.214,54.864C32.238,53.697 32.726,52.587 33.573,51.77C34.421,50.953 35.56,50.495 36.748,50.493C37.935,50.495 39.074,50.954 39.92,51.771C40.767,52.588 41.254,53.698 41.277,54.864ZM101.395,60.169C98.393,75.586 87.748,88.729 72.995,95.024L64.349,95.024L64.349,100.331L72.937,100.331C72.735,101.164 72.254,101.905 71.57,102.436C70.887,102.968 70.042,103.258 69.17,103.26L34.161,103.26L34.161,100.331L44.289,100.331L44.289,95.024L34.226,95.024C19.473,88.733 8.827,75.586 5.822,60.169L101.395,60.169ZM73.97,54.864C73.994,53.698 74.481,52.588 75.328,51.771C76.175,50.954 77.314,50.495 78.5,50.493C79.688,50.494 80.829,50.952 81.677,51.769C82.525,52.586 83.013,53.697 83.037,54.864L73.97,54.864ZM78.5,39.222C87.303,39.222 94.467,46.23 94.514,54.864L88.441,54.864C88.392,49.522 83.954,45.188 78.5,45.188C73.048,45.188 68.615,49.522 68.566,54.864L62.499,54.864C62.548,46.23 69.703,39.222 78.5,39.222Z" fill="#AD343E"/>
<path d="M77.348,85.828C77.78,85.828 78.217,85.727 78.62,85.514C81.918,83.779 84.813,81.389 87.12,78.496C89.426,75.602 91.094,72.269 92.016,68.708C92.105,68.37 92.124,68.018 92.074,67.672C92.024,67.327 91.904,66.994 91.723,66.694C91.541,66.394 91.301,66.132 91.017,65.923C90.732,65.714 90.408,65.563 90.063,65.477C89.719,65.391 89.36,65.373 89.009,65.424C88.657,65.475 88.319,65.593 88.014,65.773C87.709,65.952 87.443,66.189 87.231,66.469C87.02,66.75 86.867,67.068 86.781,67.407C86.044,70.253 84.712,72.918 82.869,75.23C81.026,77.543 78.713,79.453 76.077,80.839C75.545,81.117 75.124,81.562 74.879,82.102C74.634,82.642 74.581,83.248 74.727,83.822C74.873,84.395 75.211,84.904 75.686,85.268C76.161,85.632 76.746,85.829 77.348,85.828Z" fill="#474747"/>
<path d="M70.812,90.013C72.581,90.013 74.014,88.605 74.014,86.867C74.014,85.13 72.581,83.722 70.812,83.722C69.043,83.722 67.609,85.13 67.609,86.867C67.609,88.605 69.043,90.013 70.812,90.013Z" fill="#474747"/>
</svg>
