<svg width="56" height="62" viewBox="0 0 56 62" fill="none" xmlns="http://www.w3.org/2000/svg" xmlns:xlink="http://www.w3.org/1999/xlink">
<path d="M36.094,24.149C39.658,27.731 42.574,33.596 40.905,37.081C36.444,46.4 3.151,62.746 0.324,59.916C-2.503,57.088 13.851,23.784 23.173,19.32C26.658,17.651 32.523,20.567 36.108,24.132C36.105,24.135 36.102,24.14 36.094,24.149Z" fill="#FF8200"/>
<path d="M53.729,20.21C53.151,18.066 51.673,15.899 49.466,15.643C45.421,15.173 39.046,22.325 39.501,24.022C39.957,25.719 48.965,28.712 52.328,26.295C54.062,25.047 54.307,22.354 53.737,20.21L53.729,20.21ZM41.209,0.396C44.213,1.21 47.251,3.28 47.61,6.372C48.271,12.044 38.243,20.984 35.862,20.347C33.482,19.709 29.288,7.079 32.679,2.361C34.427,-0.071 38.203,-0.412 41.212,0.385C41.209,0.385 41.209,0.39 41.209,0.396Z" fill="#43B02A"/>
</svg>
