<svg width="102" height="42" viewBox="0 0 102 42" fill="none" xmlns="http://www.w3.org/2000/svg" xmlns:xlink="http://www.w3.org/1999/xlink">
<path d="M0.352,2.208L11.837,2.208C23.396,2.208 32.584,9.317 32.584,21.305C32.584,34.37 24.688,41.048 11.837,41.048L0.352,41.048L0.352,2.208ZM5.879,36.166L11.694,36.166C21.242,36.166 26.555,31.573 26.555,21.52C26.555,12.476 20.379,7.09 12.339,7.09L5.805,7.09L5.805,36.166L5.879,36.166ZM45.508,6.3L39.62,6.3L39.62,0.412L45.508,0.412L45.508,6.3ZM39.907,12.69L45.15,12.69L45.15,41.121L39.907,41.121L39.907,12.69ZM54.912,2.208L66.398,2.208C77.957,2.208 87.147,9.317 87.147,21.305C87.147,34.37 79.252,41.048 66.398,41.048L54.912,41.048L54.912,2.208ZM60.513,36.166L66.328,36.166C75.876,36.166 81.189,31.573 81.189,21.52C81.189,12.476 75.013,7.09 66.971,7.09L60.44,7.09L60.44,36.166L60.513,36.166ZM100.069,6.3L94.181,6.3L94.181,0.412L100.069,0.412L100.069,6.3ZM94.541,12.69L99.781,12.69L99.781,41.121L94.541,41.121L94.541,12.69Z" fill="#2C2F24"/>
</svg>
