<svg width="22" height="18" viewBox="0 0 22 18" fill="none" xmlns="http://www.w3.org/2000/svg" xmlns:xlink="http://www.w3.org/1999/xlink">
<path d="M21.202,1.323C20.389,1.684 19.53,1.91 18.627,2.046C19.53,1.503 20.253,0.645 20.569,-0.394C19.711,0.103 18.762,0.464 17.723,0.69C16.91,-0.168 15.735,-0.71 14.47,-0.71C12.03,-0.71 10.042,1.277 10.042,3.717C10.042,4.079 10.088,4.395 10.178,4.711C6.518,4.53 3.22,2.768 1.007,0.058C0.645,0.735 0.419,1.458 0.419,2.271C0.419,3.808 1.187,5.163 2.407,5.976C1.684,5.931 1.007,5.75 0.374,5.434L0.374,5.479C0.374,7.648 1.91,9.455 3.943,9.862C3.582,9.952 3.175,9.997 2.769,9.997C2.497,9.997 2.181,9.952 1.91,9.907C2.497,11.669 4.124,12.979 6.067,12.979C4.531,14.154 2.633,14.877 0.555,14.877C0.193,14.877 -0.168,14.877 -0.484,14.831C1.504,16.096 3.808,16.819 6.338,16.819C14.515,16.819 18.988,10.042 18.988,4.169C18.988,3.988 18.988,3.762 18.988,3.582C19.846,2.994 20.615,2.226 21.202,1.323Z" fill="#FFFFFF"/>
</svg>
