<svg width="382" height="50" viewBox="0 0 382 50" fill="none" xmlns="http://www.w3.org/2000/svg" xmlns:xlink="http://www.w3.org/1999/xlink">
<path d="M110.681,13.956L110.681,35.587L115.54,35.587C116.78,35.567 118.004,35.271 119.139,34.716C120.274,34.161 121.297,33.36 122.148,32.358C123.895,30.306 124.85,27.577 124.812,24.754C124.849,23.351 124.636,21.955 124.185,20.644C123.734,19.333 123.055,18.134 122.185,17.116C121.331,16.113 120.3,15.315 119.157,14.771C118.014,14.227 116.783,13.949 115.54,13.953L110.684,13.953L110.681,13.956ZM115.54,7.173C124.596,7.173 131.447,14.962 131.447,24.754C131.447,34.545 124.596,42.378 115.54,42.378L104.824,42.378C104.722,42.377 104.621,42.353 104.527,42.308C104.433,42.263 104.348,42.199 104.277,42.117C104.205,42.036 104.149,41.94 104.111,41.835C104.073,41.729 104.054,41.617 104.056,41.503L104.056,8.084C104.056,7.599 104.4,7.206 104.824,7.206L115.54,7.173ZM154.789,36.341C158.902,36.355 162.617,33.547 164.2,29.226C164.975,27.115 165.183,24.799 164.797,22.56C164.41,20.321 163.447,18.254 162.024,16.61C160.626,14.993 158.819,13.885 156.842,13.432C154.864,12.979 152.809,13.203 150.949,14.074C147.148,15.856 144.666,20.072 144.658,24.754C144.658,31.134 149.185,36.311 154.789,36.341ZM154.792,6.376C164.324,6.376 171.611,14.715 171.611,24.754C171.611,34.792 164.324,43.132 154.789,43.132C145.258,43.132 138.033,34.834 138.033,24.754C138.033,14.673 145.322,6.376 154.792,6.376ZM194.765,36.341C200.372,36.324 204.908,31.143 204.904,24.762C204.896,18.375 200.35,13.205 194.745,13.202C189.136,13.202 184.586,18.37 184.579,24.754C184.579,27.829 185.652,30.777 187.562,32.95C188.497,34.021 189.616,34.872 190.853,35.455C192.09,36.037 193.422,36.339 194.765,36.341ZM194.762,6.376C204.264,6.376 211.552,14.673 211.552,24.754C211.552,34.834 204.234,43.132 194.762,43.132C185.293,43.132 177.944,34.834 177.944,24.754C177.944,14.673 185.231,6.376 194.762,6.376ZM233.776,13.956L226.926,13.956L226.926,23.266L233.776,23.266C234.318,23.292 234.858,23.195 235.364,22.981C235.87,22.767 236.332,22.44 236.72,22.02C237.512,21.167 237.964,19.984 237.974,18.741C237.994,18.111 237.898,17.482 237.694,16.893C237.49,16.304 237.18,15.767 236.784,15.314C236.396,14.869 235.928,14.518 235.41,14.286C234.892,14.053 234.336,13.943 233.776,13.964L233.776,13.956ZM220.298,8.084C220.298,7.599 220.644,7.206 221.068,7.206L233.968,7.206C240.118,7.206 244.568,12.336 244.568,18.777C244.614,23.134 242.47,27.135 239.05,29.085L244.998,41.058C245.08,41.195 245.126,41.356 245.132,41.521C245.138,41.686 245.102,41.849 245.028,41.993C244.956,42.134 244.85,42.25 244.72,42.326C244.592,42.402 244.446,42.436 244.3,42.422L239.078,42.422C238.934,42.424 238.792,42.381 238.668,42.297C238.544,42.214 238.444,42.093 238.38,41.949L232.646,30.1L226.9,30.1L226.9,41.476C226.902,41.59 226.884,41.702 226.846,41.808C226.808,41.914 226.752,42.01 226.68,42.092C226.61,42.173 226.524,42.238 226.43,42.283C226.336,42.328 226.236,42.352 226.132,42.353L221.104,42.353C221,42.352 220.9,42.328 220.806,42.283C220.712,42.238 220.626,42.173 220.554,42.092C220.484,42.01 220.428,41.914 220.39,41.808C220.352,41.702 220.334,41.59 220.334,41.476L220.3,8.086L220.298,8.084ZM261.842,14.121L261.842,35.755L266.698,35.755C267.938,35.736 269.162,35.442 270.296,34.889C271.432,34.337 272.456,33.537 273.308,32.537C275.056,30.487 276.014,27.76 275.978,24.938C276.016,23.534 275.806,22.135 275.356,20.822C274.906,19.508 274.228,18.307 273.358,17.286C272.502,16.282 271.47,15.483 270.324,14.939C269.18,14.395 267.946,14.117 266.7,14.123L261.842,14.121ZM266.698,7.33C275.754,7.33 282.604,15.127 282.604,24.938C282.604,34.748 275.754,42.546 266.698,42.546L256.014,42.546C255.912,42.544 255.81,42.521 255.716,42.476C255.622,42.431 255.538,42.366 255.466,42.284C255.394,42.203 255.338,42.106 255.3,42.001C255.262,41.895 255.244,41.782 255.246,41.668L255.246,8.251C255.246,7.764 255.59,7.371 256.014,7.371L266.698,7.33ZM302.814,15.933L299.054,27.501L306.564,27.501L302.814,15.933ZM296.85,34.039L294.388,41.74C294.34,41.921 294.238,42.079 294.098,42.189C293.96,42.298 293.792,42.353 293.62,42.345L288.284,42.345C288.148,42.359 288.012,42.332 287.888,42.267C287.764,42.203 287.658,42.102 287.582,41.976C287.504,41.849 287.458,41.702 287.446,41.549C287.434,41.396 287.458,41.242 287.516,41.102L299.048,7.715C299.1,7.539 299.204,7.387 299.344,7.283C299.482,7.179 299.648,7.128 299.816,7.137L305.786,7.137C305.954,7.127 306.12,7.178 306.26,7.282C306.398,7.386 306.504,7.538 306.558,7.715L318.088,41.102C318.146,41.242 318.17,41.396 318.158,41.549C318.144,41.703 318.098,41.85 318.018,41.976C317.942,42.102 317.836,42.202 317.714,42.266C317.59,42.33 317.454,42.357 317.318,42.342L311.984,42.342C311.812,42.35 311.644,42.295 311.506,42.186C311.366,42.076 311.264,41.918 311.216,41.737L308.754,34.036L296.85,34.036L296.85,34.039ZM324.276,16.684C324.276,11.156 328.472,6.376 335.1,6.376C338.67,6.287 342.126,7.769 344.714,10.498C344.792,10.581 344.856,10.681 344.898,10.792C344.942,10.902 344.964,11.021 344.964,11.142C344.964,11.262 344.942,11.382 344.898,11.492C344.856,11.603 344.792,11.703 344.714,11.786L341.758,15.127C341.688,15.208 341.602,15.273 341.508,15.317C341.416,15.361 341.314,15.384 341.212,15.384C341.112,15.384 341.01,15.361 340.916,15.317C340.824,15.273 340.738,15.208 340.668,15.127C339.276,13.679 337.446,12.858 335.538,12.825C332.888,12.825 330.928,14.577 330.928,16.599C330.928,23.134 346.594,19.363 346.594,31.938C346.586,38.31 342.358,43.132 334.88,43.132C332.804,43.155 330.744,42.715 328.824,41.837C326.904,40.959 325.162,39.662 323.702,38.021C323.624,37.939 323.562,37.839 323.518,37.728C323.476,37.618 323.454,37.498 323.454,37.378C323.454,37.257 323.476,37.138 323.518,37.027C323.562,36.917 323.624,36.817 323.702,36.734L326.562,33.478C326.634,33.393 326.72,33.325 326.816,33.278C326.912,33.232 327.014,33.208 327.12,33.208C327.224,33.208 327.328,33.232 327.424,33.278C327.52,33.325 327.606,33.393 327.678,33.478C329.476,35.458 331.9,36.582 334.434,36.613C337.746,36.613 339.93,34.6 339.93,32.078C339.93,25.54 324.27,29.314 324.27,16.736M375.004,8.039L375.004,21.252L361.744,21.252L361.744,8.039C361.744,7.926 361.726,7.814 361.688,7.708C361.65,7.603 361.594,7.507 361.522,7.426C361.452,7.344 361.366,7.28 361.272,7.235C361.178,7.19 361.078,7.166 360.976,7.165L355.946,7.165C355.844,7.166 355.742,7.19 355.648,7.235C355.554,7.28 355.47,7.344 355.398,7.426C355.326,7.507 355.27,7.603 355.232,7.708C355.194,7.814 355.176,7.926 355.178,8.039L355.178,41.421C355.178,41.905 355.524,42.298 355.946,42.298L360.976,42.298C361.396,42.298 361.744,41.905 361.744,41.421L361.744,27.999L374.994,27.999L374.994,41.421C374.994,41.905 375.34,42.298 375.762,42.298L380.792,42.298C381.216,42.298 381.56,41.905 381.56,41.421L381.56,8.039C381.562,7.926 381.542,7.814 381.504,7.708C381.466,7.603 381.41,7.507 381.34,7.426C381.268,7.344 381.182,7.28 381.088,7.235C380.994,7.19 380.894,7.166 380.792,7.165L375.762,7.165C375.558,7.171 375.364,7.266 375.222,7.429C375.08,7.593 375.002,7.812 375.004,8.039ZM75.822,11.62C72.334,4.442 65.507,-0.027 58.084,0L1.919,0C1.54,0.002 1.17,0.127 0.854,0.361C0.539,0.595 0.292,0.927 0.145,1.315C0.001,1.701 -0.037,2.125 0.037,2.535C0.111,2.945 0.294,3.32 0.562,3.614L12.797,17.091C13.877,18.285 15.349,18.953 16.88,18.953L56.474,18.953C59.296,18.92 61.603,21.401 61.632,24.49C61.662,27.578 59.4,30.109 56.578,30.139L29.281,30.139C28.901,30.139 28.53,30.263 28.214,30.496C27.897,30.729 27.65,31.06 27.502,31.448C27.356,31.834 27.317,32.26 27.391,32.671C27.464,33.082 27.647,33.458 27.916,33.753L40.158,47.241C41.245,48.434 42.713,49.102 44.241,49.1L56.588,49.1C72.651,49.1 84.796,30.287 75.822,11.612Z" fill="#FF3008"/>
</svg>
