<svg width="144" height="50" viewBox="0 0 144 50" fill="none" xmlns="http://www.w3.org/2000/svg" xmlns:xlink="http://www.w3.org/1999/xlink">
<path d="M140.502,18.736C135.978,18.736 132.769,22.276 132.769,27.71L132.769,47.642L125.863,47.642L125.863,12.558L132.686,12.558L132.686,16.842C133.528,15.422 134.734,14.253 136.18,13.456C137.625,12.659 139.258,12.263 140.908,12.31L143.389,12.31L143.389,18.736L140.502,18.736ZM121.091,30.1C121.091,19.638 113.647,11.813 103.573,11.813C101.193,11.83 98.84,12.316 96.648,13.245C94.457,14.174 92.471,15.528 90.804,17.227C89.138,18.927 87.824,20.939 86.938,23.148C86.052,25.357 85.612,27.72 85.643,30.1C85.643,40.554 93.706,48.461 104.227,48.461C107.166,48.517 110.075,47.865 112.709,46.561C115.343,45.257 117.625,43.338 119.362,40.968L114.35,37.296C113.2,38.9 111.679,40.203 109.916,41.092C108.153,41.98 106.201,42.429 104.227,42.399C101.415,42.385 98.702,41.365 96.577,39.523C94.453,37.681 93.059,35.139 92.648,32.358L121.107,32.358L121.091,30.1ZM92.797,26.883C94.029,21.532 98.305,17.909 103.491,17.909C108.677,17.909 112.944,21.532 114.102,26.883L92.797,26.883ZM63.766,11.813C61.459,11.815 59.174,12.275 57.044,13.165C54.915,14.055 52.983,15.358 51.36,16.999L51.36,-0.543L44.454,-0.543L44.454,47.642L51.278,47.642L51.278,43.193C54.583,46.537 59.081,48.431 63.783,48.461C66.222,48.513 68.647,48.077 70.915,47.18C73.184,46.282 75.25,44.941 76.994,43.234C78.737,41.527 80.122,39.49 81.068,37.241C82.013,34.992 82.5,32.577 82.5,30.137C82.5,27.698 82.013,25.283 81.068,23.034C80.122,20.785 78.737,18.747 76.994,17.041C75.25,15.334 73.184,13.992 70.915,13.095C68.647,12.197 66.222,11.762 63.783,11.813L63.766,11.813ZM63.27,42.291C60.863,42.303 58.507,41.599 56.5,40.269C54.494,38.939 52.927,37.043 52,34.822C51.073,32.6 50.827,30.153 51.292,27.792C51.758,25.43 52.914,23.26 54.615,21.556C56.316,19.853 58.485,18.693 60.846,18.225C63.207,17.756 65.654,17.999 67.877,18.923C70.1,19.847 71.998,21.411 73.33,23.416C74.663,25.42 75.37,27.776 75.362,30.183C75.364,31.77 75.053,33.343 74.446,34.81C73.839,36.277 72.948,37.61 71.824,38.732C70.701,39.854 69.367,40.743 67.899,41.348C66.431,41.953 64.858,42.262 63.27,42.258L63.27,42.291ZM19.022,41.96C25.688,41.96 30.865,36.849 30.865,29.19L30.865,-0.543L38.02,-0.543L38.02,47.642L30.948,47.642L30.948,43.085C29.296,44.793 27.315,46.147 25.124,47.067C22.933,47.987 20.579,48.453 18.203,48.436C7.922,48.436 0.007,40.943 0.007,29.579L0.007,-0.543L7.294,-0.543L7.294,29.232C7.294,36.932 12.256,41.96 19.022,41.96Z" fill="#000000"/>
</svg>
