<svg width="334" height="90" viewBox="0 0 334 90" fill="none" xmlns="http://www.w3.org/2000/svg" xmlns:xlink="http://www.w3.org/1999/xlink">
<path d="M121.613,66.809L129.21,66.809L127.921,60.908L127.921,25.842L120.664,25.842L120.664,41.849C118.493,39.34 115.441,37.847 111.914,37.847C104.657,37.847 99.027,43.884 99.027,52.634C99.027,61.451 104.657,67.42 111.914,67.42C115.509,67.42 118.629,65.86 120.799,63.215L121.613,66.809ZM265.134,45.715C266.626,45.715 267.984,46.122 269.204,47.004L272.664,39.272C271.036,38.254 269.204,37.847 267.372,37.847C264.118,37.847 261.336,39.34 259.64,42.12L258.894,38.526L251.434,38.526L252.654,44.087L252.654,66.877L259.912,66.877L259.912,48.767C260.862,46.868 262.692,45.715 265.134,45.715ZM286.364,59.823C282.16,59.823 279.04,57.042 279.04,52.701C279.04,48.293 282.16,45.58 286.364,45.58C290.638,45.58 293.69,48.293 293.69,52.701C293.69,56.974 290.638,59.823 286.364,59.823ZM106.081,52.634C106.081,48.225 109.201,45.512 113.406,45.512C117.679,45.512 120.732,48.225 120.732,52.634C120.732,56.974 117.679,59.755 113.406,59.755C109.201,59.823 106.081,56.974 106.081,52.634ZM318.582,59.823C314.376,59.823 311.256,57.042 311.256,52.701C311.256,48.293 314.376,45.58 318.582,45.58C322.856,45.58 325.908,48.293 325.908,52.701C325.84,56.974 322.788,59.823 318.582,59.823ZM146.845,45.105C150.575,45.105 153.017,46.868 153.831,50.124L139.859,50.124C140.605,46.8 143.114,45.105 146.845,45.105ZM233.596,45.105C237.326,45.105 239.768,46.868 240.582,50.124L226.608,50.124C227.49,46.8 229.932,45.105 233.596,45.105ZM198.19,66.809L209.856,66.809L217.452,38.39L209.516,38.39L204.022,61.451L198.461,38.458L190.661,38.458L198.19,66.809ZM179.537,66.809L186.795,66.809L186.795,38.39L179.537,38.39L179.537,66.809ZM147.93,67.352C152,67.352 155.934,66.199 159.257,64.096L156.476,57.856C153.899,59.281 150.914,60.027 147.998,60.027C144.2,60.027 141.554,58.534 140.333,55.754L160.817,55.754C161.021,54.668 161.156,53.719 161.156,52.43C161.156,43.613 155.052,37.78 146.98,37.78C138.773,37.78 132.805,43.748 132.805,52.566C132.737,61.587 138.706,67.352 147.93,67.352ZM332.894,52.634C332.894,43.816 326.79,37.847 318.582,37.847C310.308,37.847 304.27,43.884 304.27,52.634C304.27,61.383 310.374,67.42 318.582,67.42C326.79,67.42 332.894,61.451 332.894,52.634ZM234.612,67.42C238.682,67.42 242.616,66.335 245.94,64.164L243.158,57.924C240.582,59.348 237.596,60.095 234.68,60.095C230.882,60.095 228.236,58.602 227.016,55.821L247.5,55.821C247.704,54.736 247.838,53.787 247.838,52.498C247.838,43.68 241.734,37.847 233.662,37.847C225.456,37.847 219.488,43.816 219.488,52.634C219.488,61.722 225.388,67.42 234.612,67.42ZM286.364,67.42C294.64,67.42 300.676,61.383 300.676,52.634C300.676,43.884 294.572,37.847 286.364,37.847C278.09,37.847 272.052,43.884 272.052,52.634C272.052,61.383 278.09,67.42 286.364,67.42ZM165.768,66.809L173.026,66.809L173.026,25.842L165.768,25.842L165.768,66.809ZM183.2,34.524C185.709,34.524 187.744,32.489 187.744,29.912C187.744,27.334 185.777,25.299 183.2,25.299C180.622,25.299 178.588,27.334 178.588,29.912C178.588,32.489 180.555,34.524 183.2,34.524ZM58.467,0L54.329,39.34L47.275,6.172L25.028,10.852L32.014,44.02L0,50.802L5.697,77.255L62.061,89.26L74.948,60.434L81.053,2.374L58.467,0ZM40.628,57.11C39.475,58.195 37.983,58.06 36.287,57.517C34.659,56.974 33.981,55.075 34.524,52.634C34.999,50.87 37.101,50.599 38.254,50.599C38.661,50.599 39.068,50.667 39.475,50.87C40.221,51.209 41.51,51.955 41.781,53.041C42.188,54.668 41.781,56.025 40.628,57.11ZM56.974,58.874C56.093,60.366 53.922,60.569 51.684,59.484C50.192,58.738 50.192,56.974 50.395,55.821C50.463,55.211 50.734,54.601 51.141,54.126C51.684,53.447 52.566,52.566 53.515,52.566C55.211,52.498 56.567,53.244 57.381,54.601C58.195,55.957 57.788,57.449 56.974,58.874Z" fill="#00CCBC"/>
</svg>
