<svg width="80" height="100" viewBox="0 0 80 100" fill="none" xmlns="http://www.w3.org/2000/svg" xmlns:xlink="http://www.w3.org/1999/xlink">
<path d="M68.831,0C70.236,0.001 71.626,0.298 72.909,0.871C74.192,1.445 75.34,2.283 76.278,3.331C77.215,4.378 77.921,5.611 78.35,6.95C78.779,8.289 78.92,9.703 78.766,11.1L69.881,91.1C69.61,93.547 68.446,95.808 66.612,97.45C64.778,99.092 62.403,100 59.941,100L18.891,100C16.429,100 14.053,99.092 12.219,97.45C10.385,95.808 9.221,93.547 8.951,91.1L0.061,11.1C-0.094,9.702 0.048,8.288 0.477,6.949C0.906,5.61 1.612,4.376 2.55,3.329C3.488,2.281 4.637,1.444 5.921,0.87C7.204,0.296 8.595,0 10.001,0L68.831,0ZM68.831,10L10.001,10L12.126,29.115C13.921,28.773 15.736,28.549 17.561,28.445C23.556,28.095 31.841,28.815 41.386,32.905C49.341,36.315 56.056,36.845 60.686,36.57C62.463,36.476 64.228,36.225 65.961,35.82L68.831,10ZM64.806,46.2C63.746,46.35 62.561,46.48 61.271,46.55C55.276,46.905 46.991,46.185 37.446,42.1C29.491,38.685 22.776,38.155 18.146,38.43C16.494,38.521 14.852,38.745 13.236,39.1L18.891,90L59.941,90L64.806,46.2ZM34.416,55C34.416,56.326 33.889,57.598 32.951,58.536C32.014,59.473 30.742,60 29.416,60C28.09,60 26.818,59.473 25.88,58.536C24.942,57.598 24.416,56.326 24.416,55C24.416,53.674 24.942,52.402 25.88,51.464C26.818,50.527 28.09,50 29.416,50C30.742,50 32.014,50.527 32.951,51.464C33.889,52.402 34.416,53.674 34.416,55ZM44.416,75C45.742,75 47.014,74.473 47.951,73.536C48.889,72.598 49.416,71.326 49.416,70C49.416,68.674 48.889,67.402 47.951,66.464C47.014,65.527 45.742,65 44.416,65C43.09,65 41.818,65.527 40.88,66.464C39.942,67.402 39.416,68.674 39.416,70C39.416,71.326 39.942,72.598 40.88,73.536C41.818,74.473 43.09,75 44.416,75Z" clip-rule="evenodd" fill-rule="evenodd" fill="#474747"/>
</svg>
