<svg width="34" height="32" viewBox="0 0 34 32" fill="none" xmlns="http://www.w3.org/2000/svg" xmlns:xlink="http://www.w3.org/1999/xlink">
<path d="M16.559,0.076C7.582,0.076 0.359,7.299 0.359,16.276C0.359,23.431 5.017,29.506 11.429,31.666C12.239,31.801 12.509,31.328 12.509,30.856C12.509,30.451 12.509,29.438 12.509,28.088C7.987,29.101 7.042,25.928 7.042,25.928C6.299,24.038 5.219,23.566 5.219,23.566C3.734,22.553 5.354,22.553 5.354,22.553C6.974,22.688 7.852,24.241 7.852,24.241C9.269,26.738 11.632,25.996 12.577,25.591C12.712,24.511 13.117,23.836 13.589,23.431C10.012,23.026 6.232,21.608 6.232,15.398C6.232,13.643 6.839,12.158 7.919,11.078C7.784,10.673 7.177,9.054 8.054,6.759C8.054,6.759 9.404,6.354 12.509,8.446C13.792,8.109 15.209,7.906 16.559,7.906C17.909,7.906 19.327,8.109 20.609,8.446C23.714,6.354 25.064,6.759 25.064,6.759C25.941,8.986 25.401,10.606 25.199,11.078C26.211,12.226 26.886,13.643 26.886,15.398C26.886,21.608 23.107,22.958 19.462,23.363C20.069,23.836 20.542,24.848 20.542,26.333C20.542,28.493 20.542,30.248 20.542,30.788C20.542,31.193 20.812,31.733 21.689,31.598C28.101,29.506 32.759,23.431 32.759,16.276C32.759,7.299 25.536,0.076 16.559,0.076Z" clip-rule="evenodd" fill-rule="evenodd" fill="#FFFFFF"/>
</svg>
