<svg width="304" height="50" viewBox="0 0 304 50" fill="none" xmlns="http://www.w3.org/2000/svg" xmlns:xlink="http://www.w3.org/1999/xlink">
<path d="M-0.403,47.768L-0.403,-0.551L19.699,-0.551C28.348,-0.551 33.973,5.751 33.973,14.132C33.973,22.514 28.348,28.831 19.699,28.831L7.285,28.831L7.285,47.737L-0.403,47.768ZM7.285,5.972L7.285,22.372L19.353,22.372C23.197,22.372 26.285,18.465 26.285,14.132C26.285,9.8 23.134,5.972 19.353,5.972L7.285,5.972ZM72.76,37.622C75.234,37.134 77.644,36.661 80.039,36.252C80.527,38.993 82.166,42.286 87.727,42.286C88.972,42.286 95.069,41.813 95.069,37.417C95.069,29.115 73.8,37.685 73.8,22.797C73.8,16.889 79.692,12.431 87.113,12.431C94.533,12.431 100.835,15.582 101.875,23.27C99.401,23.695 96.991,24.168 94.596,24.656C94.108,20.324 91.445,18.748 87.317,18.748C83.678,18.748 81.205,20.67 81.205,22.797C81.205,25.617 83.82,26.358 87.932,26.783C95.809,27.602 102.41,29.32 102.41,37.417C102.41,44.696 96.108,48.54 87.727,48.54C78.81,48.54 73.721,43.814 72.76,37.622ZM104.348,18.717L104.348,13.045L110.319,13.045L110.319,2.962L117.739,2.962L117.739,12.982L124.939,12.982L124.939,18.717L117.739,18.717L117.739,38.41C117.739,41.151 118.559,41.986 120.89,41.986C121.914,41.986 124.183,41.844 124.183,41.844L124.183,47.815C124.183,47.815 121.52,48.083 118.889,48.083C112.367,48.083 110.24,44.586 110.24,37.937L110.24,18.717L104.348,18.717ZM150.761,28.422C150.761,23.128 149.595,18.67 144.034,18.67C138.74,18.67 137.306,23.128 137.306,28.422L137.306,47.768L129.886,47.768L129.886,13.108L136.613,13.108L137.306,16.874C138.33,14.952 142.458,12.415 146.507,12.415C148.444,12.301 150.375,12.729 152.084,13.65C153.792,14.571 155.21,15.949 156.18,17.63C158.039,14.479 162.482,12.415 166.61,12.415C176.062,12.415 178.961,18.181 178.961,28.485L178.961,47.831L171.651,47.831L171.651,28.422C171.651,23.191 170.217,18.607 164.924,18.607C159.363,18.607 158.197,23.065 158.197,28.422L158.197,47.768L150.792,47.768L150.761,28.422ZM192.415,25.019C190.021,24.609 187.547,24.058 185.074,23.648C185.83,15.96 192.148,12.384 199.426,12.384C209.241,12.384 214.315,17.11 214.315,26.657L214.315,38.741C214.315,40.805 214.725,41.97 216.173,41.97C216.777,41.962 217.377,41.866 217.953,41.687L217.953,47.737C216.521,48.125 215.043,48.311 213.559,48.288C212.113,48.381 210.687,47.922 209.567,47.003C208.447,46.085 207.717,44.776 207.525,43.341C206.193,44.927 204.537,46.208 202.665,47.097C200.795,47.986 198.756,48.462 196.685,48.493C188.65,48.493 183.845,44.019 183.845,37.465C183.845,32.045 188.855,27.098 198.024,27.098L206.957,27.098L206.957,25.019C206.957,22.34 205.855,18.717 199.474,18.717C195.22,18.717 192.605,20.844 192.463,25.019M206.957,34.345L206.957,32.628L198.78,32.628C192.683,32.628 191.439,35.779 191.439,37.433C191.439,39.765 193.014,42.16 197.551,42.16C203.585,42.16 207.005,38.048 207.005,34.282M52.027,48.524C48.453,48.524 44.96,47.465 41.988,45.479C39.016,43.493 36.7,40.671 35.333,37.369C33.965,34.067 33.607,30.434 34.304,26.929C35.002,23.423 36.723,20.203 39.25,17.676C41.777,15.149 44.997,13.428 48.502,12.731C52.007,12.034 55.641,12.391 58.943,13.759C62.245,15.127 65.067,17.443 67.052,20.415C69.038,23.386 70.098,26.88 70.098,30.454C70.094,35.245 68.188,39.839 64.801,43.227C61.413,46.615 56.819,48.52 52.027,48.524ZM52.027,19.284C49.814,19.284 47.651,19.94 45.811,21.17C43.972,22.4 42.538,24.148 41.692,26.193C40.846,28.238 40.625,30.488 41.058,32.658C41.491,34.828 42.558,36.821 44.124,38.385C45.69,39.948 47.684,41.013 49.855,41.442C52.026,41.872 54.275,41.648 56.319,40.799C58.363,39.95 60.108,38.514 61.336,36.673C62.563,34.831 63.216,32.667 63.213,30.454C63.209,27.49 62.029,24.649 59.931,22.555C57.834,20.46 54.991,19.284 52.027,19.284ZM264.083,35.7C266.351,36.315 268.605,36.992 270.873,37.685C269.297,42.695 264.571,48.461 255.119,48.461C245.667,48.461 238.781,41.12 238.781,30.407C238.781,19.694 245.083,12.352 254.773,12.352C264.461,12.352 270.433,18.811 270.433,29.304C270.453,30.409 270.405,31.513 270.291,32.612L246.437,32.612C246.579,37.685 250.077,42.207 255.087,42.207C257.093,42.263 259.063,41.656 260.689,40.48C262.315,39.303 263.509,37.623 264.083,35.7ZM262.507,27.051C262.303,21.899 259.829,18.607 254.741,18.607C249.651,18.607 246.989,22.719 246.785,27.051L262.507,27.051ZM273.615,37.622C276.087,37.15 278.499,36.661 280.893,36.252C281.381,38.993 283.019,42.286 288.581,42.286C289.811,42.286 295.923,41.813 295.923,37.417C295.923,29.115 274.655,37.701 274.655,22.797C274.655,16.905 280.547,12.431 287.967,12.431C295.387,12.431 301.689,15.582 302.713,23.286C300.255,23.695 297.845,24.168 295.451,24.656C294.961,20.324 292.299,18.748 288.171,18.748C284.533,18.748 282.059,20.67 282.059,22.797C282.059,25.617 284.675,26.374 288.785,26.783C296.663,27.602 303.265,29.32 303.265,37.417C303.265,44.696 296.963,48.54 288.581,48.54C279.665,48.54 274.575,43.814 273.615,37.622ZM216.851,18.717L216.851,13.045L222.823,13.045L222.823,2.962L230.243,2.962L230.243,12.982L237.443,12.982L237.443,18.717L230.243,18.717L230.243,38.41C230.243,41.151 231.061,41.986 233.473,41.986C234.497,41.986 236.765,41.844 236.765,41.844L236.765,47.815C236.765,47.815 234.117,48.083 231.471,48.083C224.965,48.083 222.823,44.586 222.823,37.937L222.823,18.717L216.851,18.717Z" fill="#000000"/>
</svg>
