<svg width="236" height="50" viewBox="0 0 236 50" fill="none" xmlns="http://www.w3.org/2000/svg" xmlns:xlink="http://www.w3.org/1999/xlink">
<path d="M197.698,0.142L189.497,0.142C189.035,0.142 188.804,0.373 188.804,0.835L188.804,33.293C188.804,34.91 188.284,36.122 187.591,37.047C186.898,37.971 185.974,38.202 184.819,38.202C183.664,38.202 182.682,37.74 181.989,37.047C181.296,36.122 180.834,34.91 180.834,33.293L180.834,0.835C180.834,0.373 180.372,0.142 180.141,0.142L171.882,0.142C171.42,0.142 171.189,0.373 171.189,0.835L171.189,33.524C171.189,37.74 172.113,41.725 174.712,44.323C177.253,46.923 180.776,48.309 184.819,48.309C189.035,48.309 192.558,46.923 194.925,44.323C197.467,41.783 198.449,38.029 198.449,33.524L198.449,0.835C198.68,0.605 198.218,0.142 197.698,0.142ZM229.174,23.186C230.56,21.8 233.158,18.508 233.158,14.234C233.158,9.268 231.252,6.264 229.81,4.589C227.21,1.817 223.744,0.373 219.702,0.373L206.766,0.373C206.246,0.373 206.014,0.835 206.014,1.066L206.014,46.923C206.014,47.385 206.476,47.616 206.766,47.616L220.452,47.616C224.668,47.616 228.654,45.999 231.252,42.649C232.638,40.801 234.314,37.682 234.314,33.004C233.852,27.402 230.386,24.11 229.174,23.186ZM215.544,9.787L219.76,9.787C220.914,9.787 221.838,10.018 222.532,10.942C223.282,11.693 223.514,12.848 223.514,14.292C223.514,15.735 223.282,16.833 222.532,17.815C221.838,18.508 220.914,18.97 219.99,18.97L215.774,18.97L215.774,9.787L215.544,9.787ZM223.052,36.816C222.358,37.74 221.434,37.971 219.99,37.971L215.312,37.971L215.312,28.037L219.99,28.037C221.146,28.037 222.07,28.557 222.762,29.25C223.514,30.174 223.976,31.329 223.976,32.773C224.206,34.679 223.802,35.834 223.052,36.816ZM55.797,27.171C56.721,26.478 57.472,26.016 58.165,25.034C59.782,23.186 61.919,19.894 61.919,14.696C61.919,9.729 60.013,6.495 58.165,4.589C55.797,1.817 52.274,0.373 48.289,0.142L34.659,0.142C34.197,0.142 33.966,0.605 33.966,0.835L33.966,46.634C33.966,47.096 34.428,47.327 34.659,47.327L42.86,47.327C43.322,47.327 43.553,46.865 43.553,46.634L43.553,29.712L46.383,29.712L51.523,47.096C51.523,47.327 52.043,47.558 52.274,47.558L60.937,47.558C61.168,47.558 61.399,47.327 61.63,47.327C61.861,47.327 61.861,46.865 61.861,46.634L55.797,27.171ZM50.599,18.681C49.906,19.605 48.751,20.125 47.307,20.125L43.322,20.125L43.322,9.787L47.307,9.787C48.693,9.787 49.848,10.249 50.599,11.173C51.523,12.155 51.812,13.31 51.812,14.927C51.812,16.602 51.581,17.757 50.599,18.681ZM125.275,23.186C126.719,21.8 129.26,18.508 129.26,14.234C129.26,9.268 127.412,6.264 125.968,4.589C123.369,1.817 119.846,0.373 115.861,0.373L102.982,0.373C102.52,0.373 102.289,0.835 102.289,1.066L102.289,46.923C102.289,47.385 102.751,47.616 102.982,47.616L116.612,47.616C120.828,47.616 124.813,45.999 127.469,42.649C128.856,40.801 130.531,37.682 130.531,33.004C130.242,27.402 126.719,24.11 125.275,23.186ZM111.703,9.787L115.919,9.787C117.074,9.787 117.998,10.018 118.691,10.942C119.384,11.693 119.615,12.848 119.615,14.292C119.615,15.735 119.384,16.833 118.691,17.815C117.998,18.508 117.074,18.97 116.15,18.97L111.934,18.97L111.934,9.787L111.703,9.787ZM119.442,36.816C118.749,37.74 117.824,37.971 116.381,37.971L111.703,37.971L111.703,28.037L116.381,28.037C117.536,28.037 118.46,28.557 119.153,29.25C119.846,30.174 120.366,31.329 120.366,32.773C120.423,34.679 120.193,35.834 119.442,36.816ZM13.695,-0.551C9.478,-0.551 5.956,0.835 3.588,3.434C1.046,6.033 0.122,9.729 0.122,14.234L0.122,33.754C0.122,37.971 1.046,41.955 3.588,44.555C6.186,47.154 9.71,48.54 13.695,48.54C17.91,48.54 21.491,47.154 23.859,44.555C26.4,42.013 27.324,38.259 27.324,33.754L27.324,23.012C27.324,22.493 26.862,22.031 26.4,22.031L14.445,22.031C13.926,22.031 13.464,22.493 13.464,23.012L13.464,30.983C13.464,31.444 13.926,31.907 14.445,31.907L17.506,31.907L17.506,33.813C17.506,35.43 17.044,36.874 16.351,37.798C15.658,38.722 14.677,38.953 13.521,38.953C12.366,38.953 11.442,38.491 10.691,37.798C9.998,36.874 9.537,35.43 9.537,33.813L9.537,14.523C9.537,12.848 9.998,11.404 10.691,10.537C11.442,9.613 12.366,9.383 13.521,9.383C14.677,9.383 15.658,9.845 16.351,10.537C17.044,11.462 17.506,12.848 17.506,14.523L17.506,16.371C17.506,16.833 17.968,17.122 18.199,17.122L26.401,17.122C26.863,17.122 27.094,16.833 27.094,16.371L27.094,14.523C27.094,10.307 26.17,6.322 23.571,3.723C21.491,0.835 17.679,-0.551 13.695,-0.551ZM94.088,0.142L85.887,0.142C85.425,0.142 85.194,0.373 85.194,0.835L85.194,33.293C85.194,34.91 84.674,36.122 83.981,37.047C83.288,37.971 82.364,38.202 81.209,38.202C80.054,38.202 79.072,37.74 78.379,37.047C77.686,36.122 77.224,34.91 77.224,33.293L77.224,0.835C77.224,0.373 76.704,0.142 76.473,0.142L68.272,0.142C67.81,0.142 67.579,0.373 67.579,0.835L67.579,33.524C67.579,37.74 68.561,41.725 71.102,44.323C73.701,46.923 77.224,48.309 81.209,48.309C85.425,48.309 89.006,46.923 91.316,44.323C93.915,41.783 94.839,38.029 94.839,33.524L94.839,0.835C94.781,0.605 94.55,0.142 94.088,0.142ZM163.161,0.142L154.96,0.142C154.498,0.142 154.267,0.605 154.267,0.835L154.267,18.681L146.066,18.681L146.066,0.835C146.066,0.373 145.604,0.142 145.373,0.142L137.172,0.142C136.71,0.142 136.479,0.605 136.479,0.835L136.479,46.634C136.479,47.096 136.941,47.327 137.172,47.327L145.373,47.327C145.835,47.327 146.066,46.865 146.066,46.634L146.066,28.326L154.267,28.326L154.267,46.634C154.267,47.096 154.729,47.327 154.96,47.327L163.161,47.327C163.623,47.327 163.855,46.865 163.855,46.634L163.855,0.835C163.855,0.605 163.623,0.142 163.161,0.142Z" fill="#F63440"/>
</svg>
