<svg width="232" height="44" viewBox="0 0 232 44" fill="none" xmlns="http://www.w3.org/2000/svg" xmlns:xlink="http://www.w3.org/1999/xlink">
<path d="M60.746,23.96L57.768,23.508C54.93,23.089 53.287,22.17 53.287,20.498C53.287,18.579 55.425,17.389 58.585,17.389C60.82,17.389 62.64,18.226 64.382,19.115L64.73,19.291C65.131,19.496 65.564,19.599 66.011,19.599C67.044,19.599 67.998,19.038 68.497,18.132L68.738,17.694C69.123,16.993 69.206,16.188 68.969,15.425C68.733,14.664 68.212,14.049 67.5,13.693C64.963,12.424 62.21,11.282 58.582,11.282C51.003,11.282 46.123,14.941 46.123,20.831C46.123,25.666 49.597,28.698 56.174,29.595L59.177,29.985C62.352,30.429 63.895,31.369 63.895,32.858C63.895,34.233 63.152,36.058 58.235,36.058C55.524,36.058 52.771,35.369 50.536,33.954C50.089,33.672 49.577,33.521 49.05,33.521C48.068,33.521 47.137,34.042 46.619,34.88L46.45,35.15C46.035,35.822 45.91,36.648 46.106,37.414C46.302,38.18 46.787,38.812 47.47,39.193C51.365,41.383 55.863,42.16 58.232,42.16C66.133,42.16 71.022,38.698 71.022,32.605C71.03,27.736 67.568,24.94 60.746,23.96ZM152.606,34.603C152.037,33.966 151.217,33.601 150.363,33.601C149.785,33.601 149.221,33.766 148.729,34.077C147.12,35.096 145.36,35.637 143.632,35.637C138.886,35.637 135.441,31.887 135.441,26.722C135.441,21.557 138.886,17.808 143.632,17.808C145.454,17.808 147.086,18.303 148.617,19.322C149.805,20.111 151.508,19.909 152.484,18.867L152.738,18.596C153.407,17.885 153.722,16.916 153.609,15.946C153.498,14.992 152.976,14.14 152.182,13.614C149.847,12.065 146.955,11.248 143.814,11.248C134.703,11.248 128.34,17.611 128.34,26.719C128.34,35.831 134.703,42.194 143.814,42.194C146.969,42.194 149.879,41.36 152.231,39.78C153.017,39.253 153.535,38.41 153.651,37.465C153.771,36.514 153.472,35.56 152.834,34.848L152.606,34.603ZM5.166,0.781C2.794,0.781 0.938,2.663 0.938,5.063C0.938,7.475 2.754,9.292 5.166,9.292C7.566,9.292 9.448,7.435 9.448,5.063C9.448,2.663 7.566,0.781 5.166,0.781ZM6.444,11.501L3.95,11.501C2.728,11.501 1.738,12.492 1.738,13.713L1.738,39.23C1.738,40.452 2.728,41.442 3.95,41.442L6.444,41.442C7.666,41.442 8.656,40.452 8.656,39.23L8.656,13.713C8.656,12.492 7.666,11.501 6.444,11.501ZM88.339,35.503C85.54,35.492 82.286,33.299 82.286,29.458L82.286,17.947L88.359,17.947C89.58,17.947 90.571,16.956 90.571,15.735L90.571,13.713C90.571,12.492 89.58,11.501 88.359,11.501L82.286,11.501L82.286,4.858C82.286,3.637 81.295,2.646 80.073,2.646L77.443,2.646C76.221,2.646 75.23,3.637 75.23,4.858L75.23,29.046C75.23,36.01 80.515,42.166 87.832,42.166L87.835,42.166C88.564,42.166 89.253,41.881 89.774,41.36C90.292,40.842 90.58,40.153 90.58,39.421L90.58,37.715C90.574,36.488 89.569,35.509 88.339,35.503ZM27.892,11.251C19.037,11.251 14.097,18.334 14.097,24.393L14.097,39.23C14.097,40.452 15.088,41.442 16.31,41.442L18.832,41.442C20.054,41.442 21.045,40.452 21.045,39.23L21.045,25.507C21.045,20.911 23.829,17.867 27.889,17.867C31.95,17.867 34.734,20.911 34.734,25.507L34.734,39.23C34.734,40.452 35.725,41.442 36.946,41.442L39.469,41.442C40.691,41.442 41.681,40.452 41.681,39.23L41.681,24.393C41.687,18.332 36.75,11.251 27.892,11.251ZM210.05,11.558C209.09,11.347 206.684,11.251 205.438,11.251C205.325,11.251 205.215,11.253 205.106,11.253C198.25,11.253 191.918,16.842 191.918,24.547C191.918,24.553 191.915,24.561 191.915,24.567L191.915,39.23C191.915,40.452 192.906,41.442 194.128,41.442L196.65,41.442C197.872,41.442 198.863,40.452 198.863,39.23L198.863,24.8C198.863,20.606 201.858,17.87 205.528,17.87C206.2,17.882 206.919,17.956 207.626,18.095C207.82,18.132 208.014,18.152 208.209,18.152C209.611,18.152 210.823,17.184 211.151,15.823C211.332,15.074 211.463,14.519 211.59,14.009C211.715,13.5 211.63,12.925 211.34,12.458C211.046,11.996 210.588,11.675 210.05,11.558ZM228.554,17.947C229.776,17.947 230.765,16.956 230.765,15.735L230.765,13.713C230.765,12.492 229.776,11.501 228.554,11.501L222.479,11.501L222.479,4.858C222.479,3.637 221.49,2.646 220.265,2.646L217.633,2.646C216.414,2.646 215.421,3.637 215.421,4.858L215.421,29.046C215.421,36.01 220.706,42.166 228.024,42.166L228.028,42.166C228.758,42.166 229.445,41.881 229.965,41.36C230.483,40.842 230.771,40.153 230.771,39.421L230.771,37.715C230.771,36.485 229.765,35.506 228.535,35.503C225.738,35.492 222.483,33.299 222.483,29.458L222.483,17.947L228.554,17.947ZM180.401,13.625C180.398,13.622 180.392,13.619 180.39,13.617C178.055,12.068 175.162,11.251 172.022,11.251C171.968,11.251 171.914,11.253 171.86,11.253C171.805,11.253 171.751,11.251 171.697,11.251C168.557,11.251 165.661,12.068 163.329,13.617C163.326,13.619 163.32,13.622 163.318,13.625C159.115,16.27 156.55,20.942 156.55,26.725C156.55,32.781 159.366,37.621 163.927,40.187C166.054,41.442 168.579,42.191 171.301,42.194C176.273,42.197 179.276,39.381 180.219,38.151L180.219,39.21C180.219,40.432 181.21,41.423 182.431,41.423L184.954,41.423C186.175,41.423 187.166,40.432 187.166,39.21L187.166,26.722C187.169,20.94 184.604,16.267 180.401,13.625ZM174.638,35.173C173.83,35.44 173.007,35.594 172.19,35.628C172.13,35.631 172.07,35.631 172.01,35.634C171.959,35.634 171.911,35.637 171.86,35.637C171.808,35.637 171.76,35.634 171.709,35.634C171.649,35.634 171.589,35.631 171.529,35.628C170.712,35.594 169.886,35.44 169.081,35.173C165.818,34.02 163.651,30.819 163.651,26.722C163.651,21.888 166.672,18.292 170.951,17.853C170.974,17.85 170.997,17.85 171.019,17.848C171.116,17.839 171.213,17.83 171.313,17.825C171.367,17.822 171.424,17.819 171.478,17.816C171.572,17.813 171.669,17.811 171.763,17.811C171.797,17.811 171.828,17.808 171.862,17.808C171.896,17.808 171.928,17.808 171.962,17.811C172.059,17.811 172.153,17.813 172.247,17.816C172.304,17.819 172.358,17.822 172.412,17.825C172.508,17.83 172.608,17.836 172.705,17.848C172.728,17.85 172.751,17.85 172.773,17.853C177.053,18.292 180.074,21.885 180.074,26.722C180.068,30.817 177.901,34.02 174.638,35.173ZM117.423,13.625C117.421,13.622 117.415,13.619 117.412,13.617C115.077,12.068 112.184,11.251 109.044,11.251C108.99,11.251 108.936,11.253 108.881,11.253C108.827,11.253 108.773,11.251 108.719,11.251C105.579,11.251 102.683,12.068 100.351,13.617C100.349,13.619 100.343,13.622 100.34,13.625C96.137,16.27 93.572,20.942 93.572,26.725C93.572,32.781 96.388,37.621 100.949,40.187C103.076,41.442 105.602,42.191 108.323,42.194C113.295,42.197 116.299,39.381 117.241,38.151L117.241,39.21C117.241,40.432 118.232,41.423 119.453,41.423L121.976,41.423C123.198,41.423 124.188,40.432 124.188,39.21L124.188,26.722C124.191,20.94 121.626,16.267 117.423,13.625ZM111.66,35.173C110.852,35.44 110.029,35.594 109.212,35.628C109.152,35.631 109.092,35.631 109.032,35.634C108.981,35.634 108.933,35.637 108.881,35.637C108.83,35.637 108.782,35.634 108.731,35.634C108.671,35.634 108.611,35.631 108.551,35.628C107.734,35.594 106.909,35.44 106.103,35.173C102.84,34.02 100.673,30.819 100.673,26.722C100.673,21.888 103.694,18.292 107.973,17.853C107.996,17.85 108.019,17.85 108.042,17.848C108.139,17.839 108.235,17.83 108.335,17.825C108.389,17.822 108.446,17.819 108.5,17.816C108.594,17.813 108.691,17.811 108.785,17.811C108.819,17.811 108.85,17.808 108.885,17.808C108.919,17.808 108.95,17.808 108.984,17.811C109.081,17.811 109.175,17.813 109.269,17.816C109.326,17.819 109.38,17.822 109.434,17.825C109.531,17.83 109.631,17.836 109.727,17.848C109.75,17.85 109.773,17.85 109.796,17.853C114.075,18.292 117.096,21.885 117.096,26.722C117.09,30.817 114.923,34.02 111.66,35.173Z" fill="#43B02A"/>
</svg>
